<?xml version="1.0" encoding="UTF-8" standalone="no"?>
<svg
   xmlns:dc="http://purl.org/dc/elements/1.1/"
   xmlns:cc="http://creativecommons.org/ns#"
   xmlns:rdf="http://www.w3.org/1999/02/22-rdf-syntax-ns#"
   xmlns:svg="http://www.w3.org/2000/svg"
   xmlns="http://www.w3.org/2000/svg"
   xmlns:sodipodi="http://sodipodi.sourceforge.net/DTD/sodipodi-0.dtd"
   xmlns:inkscape="http://www.inkscape.org/namespaces/inkscape"
   version="1.1"
   viewBox="0 0 570.46191 341.73752"
   fill="none"
   stroke="none"
   stroke-linecap="square"
   stroke-miterlimit="10"
   id="svg173"
   sodipodi:docname="Naamloze tekening.svg"
   width="570.46191"
   height="341.73752"
   inkscape:version="1.0.1 (3bc2e813f5, 2020-09-07)">
  <metadata
     id="metadata179">
    <rdf:RDF>
      <cc:Work
         rdf:about="">
        <dc:format>image/svg+xml</dc:format>
        <dc:type
           rdf:resource="http://purl.org/dc/dcmitype/StillImage" />
        <dc:title></dc:title>
      </cc:Work>
    </rdf:RDF>
  </metadata>
  <defs
     id="defs177" />
  <sodipodi:namedview
     pagecolor="#ffffff"
     bordercolor="#666666"
     borderopacity="1"
     objecttolerance="10"
     gridtolerance="10"
     guidetolerance="10"
     inkscape:pageopacity="0"
     inkscape:pageshadow="2"
     inkscape:window-width="2560"
     inkscape:window-height="1361"
     id="namedview175"
     showgrid="false"
     lock-margins="true"
     fit-margin-top="5"
     fit-margin-left="5"
     fit-margin-right="5"
     fit-margin-bottom="5"
     inkscape:zoom="1.5791667"
     inkscape:cx="313.10367"
     inkscape:cy="156.90683"
     inkscape:window-x="-9"
     inkscape:window-y="-9"
     inkscape:window-maximized="1"
     inkscape:current-layer="svg173" />
  <clipPath
     id="p.0">
    <path
       d="M 0,0 H 960 V 720 H 0 Z"
       clip-rule="nonzero"
       id="path2" />
  </clipPath>
  <path
     fill="#ffffff"
     d="m 254.99344,5.5 h 39.68503 v 39.68504 h -39.68503 z"
     fill-rule="evenodd"
     id="path7" />
  <path
     stroke="#000000"
     stroke-width="1"
     stroke-linejoin="round"
     stroke-linecap="butt"
     d="m 254.99344,5.5 h 39.68503 v 39.68504 h -39.68503 z"
     fill-rule="evenodd"
     id="path9" />
  <path
     fill="#000000"
     d="m 278.84667,19.06627 1.35937,-1.75 1.3125,0.95312 -1.46875,1.89063 q 0.85938,1.17187 1.17188,2.125 0.4375,1.375 0.4375,3.1875 0,4.10937 -2.3125,6.03125 -1.875,1.54687 -4.51563,1.54687 -2.17187,0 -3.84375,-1.09375 l -1.4375,1.84375 -1.28125,-0.96875 1.46875,-1.92187 q -0.79687,-0.9375 -1.14062,-1.85938 -0.54688,-1.5 -0.54688,-3.39062 0,-4.10938 2,-5.9375 2.01563,-1.84375 4.71875,-1.84375 1.125,0 2.0625,0.28125 0.95313,0.28125 2.01563,0.90625 z m -1.375,1.79687 q -1.25,-0.95312 -2.60938,-0.95312 -1.82812,0 -3.0625,1.40625 -1.21875,1.39062 -1.21875,4.14062 0,2.0625 0.70313,3.4375 z m 1.01562,1.32813 -6.125,7.96875 q 1.0625,0.85937 2.40625,0.85937 1.89063,0 3.125,-1.39062 1.25,-1.39063 1.25,-4.1875 0,-1.03125 -0.17187,-1.8125 -0.10938,-0.57813 -0.48438,-1.4375 z"
     fill-rule="nonzero"
     id="path11" />
  <path
     fill="#ffffff"
     d="m 101.15354,148.94226 h 39.68503 v 39.59055 h -39.68503 z"
     fill-rule="evenodd"
     id="path13" />
  <path
     stroke="#000000"
     stroke-width="1"
     stroke-linejoin="round"
     stroke-linecap="butt"
     d="m 101.15354,148.94226 h 39.68503 v 39.59055 h -39.68503 z"
     fill-rule="evenodd"
     id="path15" />
  <path
     fill="#000000"
     d="m 120.98532,174.24253 h -0.5625 q 0.10937,-1.71875 0.4375,-2.84375 0.32812,-1.14063 1.39062,-3.14063 0.8125,-1.54687 1.0625,-2.375 0.25,-0.82812 0.25,-1.67187 0,-1.73438 -0.92187,-2.76563 -0.92188,-1.03125 -2.26563,-1.03125 -1.1875,0 -1.875,0.5625 -0.6875,0.5625 -0.6875,1.21875 0,0.5 0.40625,1.25 0.42188,0.73438 0.42188,1.10938 0,0.5 -0.3125,0.84375 -0.3125,0.32812 -0.76563,0.32812 -0.57812,0 -1.04687,-0.5625 -0.46875,-0.57812 -0.46875,-1.59375 0,-1.53125 1.3125,-2.71875 1.32812,-1.20312 3.60937,-1.20312 2.8125,0 4.14063,1.64062 0.98437,1.20313 0.98437,2.67188 0,1 -0.45312,2.0625 -0.4375,1.04687 -1.6875,2.46875 -1.98438,2.23437 -2.4375,3.17187 -0.4375,0.9375 -0.53125,2.57813 z m -0.1875,1.6875 q 0.64062,0 1.07812,0.45312 0.45313,0.4375 0.45313,1.07813 0,0.64062 -0.45313,1.09375 -0.45312,0.4375 -1.07812,0.4375 -0.625,0 -1.07813,-0.4375 -0.4375,-0.45313 -0.4375,-1.09375 0,-0.64063 0.4375,-1.07813 0.45313,-0.45312 1.07813,-0.45312 z"
     fill-rule="nonzero"
     id="path17" />
  <path
     fill="#ffffff"
     d="m 254.99344,82.0538 h 39.68503 v 39.59055 h -39.68503 z"
     fill-rule="evenodd"
     id="path19" />
  <path
     stroke="#000000"
     stroke-width="1"
     stroke-linejoin="round"
     stroke-linecap="butt"
     d="m 254.99344,82.0538 h 39.68503 v 39.59055 h -39.68503 z"
     fill-rule="evenodd"
     id="path21" />
  <path
     fill="#000000"
     d="m 281.47959,97.24473 q 1.8125,1.98437 3.14062,3.01562 1.32813,1.03125 2.5,1.54688 v 0.60937 q -1.35937,0.65625 -2.625,1.6875 -1.26562,1.01563 -3.03125,2.98438 h -1.0625 q 1.29688,-2.75 2.70313,-4.23438 h -21.8125 v -1.375 h 21.8125 q -1.04688,-1.32812 -1.45313,-1.96875 -0.40625,-0.64062 -1.21875,-2.26562 z"
     fill-rule="nonzero"
     id="path23" />
  <path
     fill="#ffffff"
     d="m 405.99082,148.94226 h 39.68506 v 39.59055 h -39.68506 z"
     fill-rule="evenodd"
     id="path25" />
  <path
     stroke="#000000"
     stroke-width="1"
     stroke-linejoin="round"
     stroke-linecap="butt"
     d="m 405.99082,148.94226 h 39.68506 v 39.59055 h -39.68506 z"
     fill-rule="evenodd"
     id="path27" />
  <path
     fill="#000000"
     d="m 425.8226,174.24253 h -0.5625 q 0.10937,-1.71875 0.4375,-2.84375 0.32812,-1.14063 1.39062,-3.14063 0.8125,-1.54687 1.0625,-2.375 0.25,-0.82812 0.25,-1.67187 0,-1.73438 -0.92187,-2.76563 -0.92188,-1.03125 -2.26563,-1.03125 -1.1875,0 -1.875,0.5625 -0.6875,0.5625 -0.6875,1.21875 0,0.5 0.40625,1.25 0.42188,0.73438 0.42188,1.10938 0,0.5 -0.3125,0.84375 -0.3125,0.32812 -0.76563,0.32812 -0.57812,0 -1.04687,-0.5625 -0.46875,-0.57812 -0.46875,-1.59375 0,-1.53125 1.3125,-2.71875 1.32812,-1.20312 3.60937,-1.20312 2.8125,0 4.14063,1.64062 0.98437,1.20313 0.98437,2.67188 0,1 -0.45312,2.0625 -0.4375,1.04687 -1.6875,2.46875 -1.98438,2.23437 -2.4375,3.17187 -0.4375,0.9375 -0.53125,2.57813 z m -0.1875,1.6875 q 0.64062,0 1.07812,0.45312 0.45313,0.4375 0.45313,1.07813 0,0.64062 -0.45313,1.09375 -0.45312,0.4375 -1.07812,0.4375 -0.625,0 -1.07813,-0.4375 -0.4375,-0.45313 -0.4375,-1.09375 0,-0.64063 0.4375,-1.07813 0.45313,-0.45312 1.07813,-0.45312 z"
     fill-rule="nonzero"
     id="path29" />
  <path
     fill="#ffffff"
     d="m 169.15354,217.35696 h 39.68503 v 39.59055 h -39.68503 z"
     fill-rule="evenodd"
     id="path31" />
  <path
     stroke="#000000"
     stroke-width="1"
     stroke-linejoin="round"
     stroke-linecap="butt"
     d="m 169.15354,217.35696 h 39.68503 v 39.59055 h -39.68503 z"
     fill-rule="evenodd"
     id="path33" />
  <path
     fill="#000000"
     d="m 188.98532,242.65723 h -0.5625 q 0.10937,-1.71875 0.4375,-2.84375 0.32812,-1.14062 1.39062,-3.14062 0.8125,-1.54688 1.0625,-2.375 0.25,-0.82813 0.25,-1.67188 0,-1.73437 -0.92187,-2.76562 -0.92188,-1.03125 -2.26563,-1.03125 -1.1875,0 -1.875,0.5625 -0.6875,0.5625 -0.6875,1.21875 0,0.5 0.40625,1.25 0.42188,0.73437 0.42188,1.10937 0,0.5 -0.3125,0.84375 -0.3125,0.32813 -0.76563,0.32813 -0.57812,0 -1.04687,-0.5625 -0.46875,-0.57813 -0.46875,-1.59375 0,-1.53125 1.3125,-2.71875 1.32812,-1.20313 3.60937,-1.20313 2.8125,0 4.14063,1.64063 0.98437,1.20312 0.98437,2.67187 0,1 -0.45312,2.0625 -0.4375,1.04688 -1.6875,2.46875 -1.98438,2.23438 -2.4375,3.17188 -0.4375,0.9375 -0.53125,2.57812 z m -0.1875,1.6875 q 0.64062,0 1.07812,0.45313 0.45313,0.4375 0.45313,1.07812 0,0.64063 -0.45313,1.09375 -0.45312,0.4375 -1.07812,0.4375 -0.625,0 -1.07813,-0.4375 -0.4375,-0.45312 -0.4375,-1.09375 0,-0.64062 0.4375,-1.07812 0.45313,-0.45313 1.07813,-0.45313 z"
     fill-rule="nonzero"
     id="path35" />
  <path
     fill="#ffffff"
     d="m 447.92257,217.35696 h 39.68506 v 39.59055 h -39.68506 z"
     fill-rule="evenodd"
     id="path37" />
  <path
     stroke="#000000"
     stroke-width="1"
     stroke-linejoin="round"
     stroke-linecap="butt"
     d="m 447.92257,217.35696 h 39.68506 v 39.59055 h -39.68506 z"
     fill-rule="evenodd"
     id="path39" />
  <path
     fill="#000000"
     d="m 467.75437,242.65723 h -0.5625 q 0.10938,-1.71875 0.4375,-2.84375 0.32813,-1.14062 1.39063,-3.14062 0.8125,-1.54688 1.0625,-2.375 0.25,-0.82813 0.25,-1.67188 0,-1.73437 -0.92188,-2.76562 -0.92187,-1.03125 -2.26562,-1.03125 -1.1875,0 -1.875,0.5625 -0.6875,0.5625 -0.6875,1.21875 0,0.5 0.40625,1.25 0.42187,0.73437 0.42187,1.10937 0,0.5 -0.3125,0.84375 -0.3125,0.32813 -0.76562,0.32813 -0.57813,0 -1.04688,-0.5625 -0.46875,-0.57813 -0.46875,-1.59375 0,-1.53125 1.3125,-2.71875 1.32813,-1.20313 3.60938,-1.20313 2.8125,0 4.14062,1.64063 0.98438,1.20312 0.98438,2.67187 0,1 -0.45313,2.0625 -0.4375,1.04688 -1.6875,2.46875 -1.98437,2.23438 -2.4375,3.17188 -0.4375,0.9375 -0.53125,2.57812 z m -0.1875,1.6875 q 0.64063,0 1.07813,0.45313 0.45312,0.4375 0.45312,1.07812 0,0.64063 -0.45312,1.09375 -0.45313,0.4375 -1.07813,0.4375 -0.625,0 -1.07812,-0.4375 -0.4375,-0.45312 -0.4375,-1.09375 0,-0.64062 0.4375,-1.07812 0.45312,-0.45313 1.07812,-0.45313 z"
     fill-rule="nonzero"
     id="path41" />
  <path
     fill="#fef163"
     d="m 5.5,237.15353 v 0 c 0,-12.68079 21.41277,-22.9606 47.82677,-22.9606 v 0 c 26.414,0 47.82676,10.27981 47.82676,22.9606 v 0 c 0,12.68082 -21.41276,22.96063 -47.82676,22.96063 v 0 C 26.91277,260.11416 5.5,249.83435 5.5,237.15353 Z"
     fill-rule="evenodd"
     id="path43" />
  <path
     stroke="#000000"
     stroke-width="1"
     stroke-linejoin="round"
     stroke-linecap="butt"
     d="m 5.5,237.15353 v 0 c 0,-12.68079 21.41277,-22.9606 47.82677,-22.9606 v 0 c 26.414,0 47.82676,10.27981 47.82676,22.9606 v 0 c 0,12.68082 -21.41276,22.96063 -47.82676,22.96063 v 0 C 26.91277,260.11416 5.5,249.83435 5.5,237.15353 Z"
     fill-rule="evenodd"
     id="path45" />
  <path
     fill="#000000"
     d="m 37.52831,227.1748 q 1.375,0 2.375,1.04687 1.01562,1.04688 1.01562,2.60938 0,1.59375 -1.01562,2.65625 -1.01563,1.0625 -2.45313,1.0625 -1.45312,0 -2.45312,-1.03125 -0.98438,-1.03125 -0.98438,-2.67188 0,-1.6875 1.14063,-2.75 1,-0.92187 2.375,-0.92187 z m -0.0937,0.375 q -0.95313,0 -1.51563,0.70312 -0.71875,0.875 -0.71875,2.5625 0,1.73438 0.75,2.65625 0.5625,0.71875 1.48438,0.71875 1,0 1.64062,-0.78125 0.65625,-0.78125 0.65625,-2.4375 0,-1.8125 -0.71875,-2.70312 -0.5625,-0.71875 -1.57812,-0.71875 z m 5.53935,2.90625 q 0.6875,-0.96875 1.48438,-0.96875 0.73437,0 1.28125,0.625 0.54687,0.625 0.54687,1.71875 0,1.26562 -0.84375,2.04687 -0.71875,0.65625 -1.60937,0.65625 -0.40625,0 -0.84375,-0.14062 -0.42188,-0.15625 -0.875,-0.45313 v -4.9375 q 0,-0.8125 -0.0469,-1 -0.0312,-0.1875 -0.125,-0.25 -0.0781,-0.0781 -0.20312,-0.0781 -0.14063,0 -0.35938,0.0781 l -0.0781,-0.17187 1.4375,-0.59375 h 0.23437 z m 0,0.32812 v 2.84375 q 0.26563,0.26563 0.54688,0.40625 0.28125,0.125 0.57812,0.125 0.46875,0 0.875,-0.51562 0.42188,-0.53125 0.42188,-1.51563 0,-0.92187 -0.42188,-1.40625 -0.40625,-0.5 -0.92187,-0.5 -0.26563,0 -0.54688,0.14063 -0.20312,0.10937 -0.53125,0.42187 z m 5.23438,-3.79687 q 0.21875,0 0.375,0.15625 0.15625,0.15625 0.15625,0.375 0,0.21875 -0.15625,0.375 -0.15625,0.15625 -0.375,0.15625 -0.21875,0 -0.375,-0.15625 -0.15625,-0.15625 -0.15625,-0.375 0,-0.21875 0.15625,-0.375 0.15625,-0.15625 0.375,-0.15625 z m 0.4375,2.5 v 4.79687 q 0,1.21875 -0.51563,1.8125 -0.51562,0.59375 -1.35937,0.59375 -0.46875,0 -0.6875,-0.17187 -0.23438,-0.17188 -0.23438,-0.34375 0,-0.1875 0.125,-0.32813 0.125,-0.125 0.29688,-0.125 0.14062,0 0.28125,0.0781 0.0781,0.0312 0.32812,0.25 0.26563,0.23437 0.4375,0.23437 0.125,0 0.23438,-0.0937 0.125,-0.0937 0.17187,-0.32812 0.0625,-0.21875 0.0625,-0.98438 v -3.39062 q 0,-0.78125 -0.0469,-1 -0.0312,-0.17188 -0.10938,-0.23438 -0.0781,-0.0781 -0.21875,-0.0781 -0.14062,0 -0.34375,0.0781 l -0.0781,-0.1875 1.4375,-0.57812 z m 2.30439,3.89062 q 0.25,0 0.40625,0.17188 0.17188,0.17187 0.17188,0.40625 0,0.25 -0.17188,0.42187 -0.15625,0.15625 -0.40625,0.15625 -0.23437,0 -0.40625,-0.15625 -0.17187,-0.17187 -0.17187,-0.42187 0,-0.23438 0.17187,-0.40625 0.17188,-0.17188 0.40625,-0.17188 z m 6.1875,-2.28125 v 2.04688 q 0,0.67187 0.14063,0.82812 0.20312,0.23438 0.59375,0.23438 h 0.28125 v 0.1875 h -3.03125 v -0.1875 h 0.26562 q 0.45313,0 0.64063,-0.29688 0.10937,-0.15625 0.10937,-0.76562 v -4.5625 q 0,-0.65625 -0.14062,-0.82813 -0.20313,-0.21875 -0.60938,-0.21875 h -0.26562 v -0.20312 h 2.59375 q 0.9375,0 1.48437,0.20312 0.54688,0.1875 0.92188,0.65625 0.375,0.46875 0.375,1.09375 0,0.875 -0.57813,1.42188 -0.5625,0.53125 -1.59375,0.53125 -0.26562,0 -0.5625,-0.0312 -0.28125,-0.0469 -0.625,-0.10938 z m 0,-0.29687 q 0.28125,0.0469 0.48438,0.0781 0.21875,0.0156 0.35937,0.0156 0.54688,0 0.9375,-0.40625 0.39063,-0.42188 0.39063,-1.09375 0,-0.45313 -0.1875,-0.84375 -0.1875,-0.40625 -0.53125,-0.59375 -0.34375,-0.20313 -0.78125,-0.20313 -0.25,0 -0.67188,0.10938 z m 6.41088,-1.3125 q 1.07812,0 1.73437,0.82812 0.54688,0.70313 0.54688,1.60938 0,0.64062 -0.3125,1.29687 -0.29688,0.65625 -0.84375,0.98438 -0.53125,0.32812 -1.1875,0.32812 -1.07813,0 -1.71875,-0.85937 -0.53125,-0.71875 -0.53125,-1.625 0,-0.64063 0.32812,-1.28125 0.32813,-0.65625 0.85938,-0.96875 0.53125,-0.3125 1.125,-0.3125 z m -0.17188,0.34375 q -0.26562,0 -0.54687,0.17187 -0.28125,0.15625 -0.45313,0.5625 -0.17187,0.40625 -0.17187,1.0625 0,1.03125 0.40625,1.79688 0.42187,0.75 1.09375,0.75 0.5,0 0.82812,-0.42188 0.32813,-0.42187 0.32813,-1.4375 0,-1.26562 -0.54688,-1.98437 -0.35937,-0.5 -0.9375,-0.5 z m 6.23438,-0.34375 v 1.625 h -0.17188 q -0.1875,-0.76563 -0.5,-1.03125 -0.3125,-0.28125 -0.78125,-0.28125 -0.375,0 -0.59375,0.1875 -0.21875,0.1875 -0.21875,0.42187 0,0.29688 0.15625,0.5 0.17188,0.21875 0.65625,0.45313 l 0.76563,0.375 q 1.04687,0.51562 1.04687,1.35937 0,0.64063 -0.5,1.04688 -0.48437,0.39062 -1.07812,0.39062 -0.4375,0 -1,-0.15625 -0.17188,-0.0469 -0.28125,-0.0469 -0.125,0 -0.1875,0.14062 h -0.17188 v -1.70312 h 0.17188 q 0.14062,0.71875 0.54687,1.09375 0.42188,0.375 0.92188,0.375 0.35937,0 0.57812,-0.20313 0.23438,-0.21875 0.23438,-0.51562 0,-0.35938 -0.25,-0.60938 -0.25,-0.25 -1.01563,-0.625 -0.75,-0.375 -0.98437,-0.67187 -0.23438,-0.29688 -0.23438,-0.75 0,-0.57813 0.40625,-0.96875 0.40625,-0.40625 1.04688,-0.40625 0.28125,0 0.6875,0.125 0.25,0.0781 0.34375,0.0781 0.0781,0 0.125,-0.0312 0.0469,-0.0469 0.10937,-0.17187 z m 2.06886,3.89062 q 0.25,0 0.40625,0.17188 0.17188,0.17187 0.17188,0.40625 0,0.25 -0.17188,0.42187 -0.15625,0.15625 -0.40625,0.15625 -0.23437,0 -0.40625,-0.15625 -0.17187,-0.17187 -0.17187,-0.42187 0,-0.23438 0.17187,-0.40625 0.17188,-0.17188 0.40625,-0.17188 z"
     fill-rule="nonzero"
     id="path47" />
  <path
     fill="#000000"
     d="m 39.81836,247.39355 h -1.89063 l -2.39062,-3.29688 q -0.25,0.0156 -0.42188,0.0156 -0.0625,0 -0.14062,0 -0.0781,-0.0156 -0.17188,-0.0156 v 2.04688 q 0,0.67187 0.15625,0.82812 0.1875,0.23438 0.57813,0.23438 h 0.28125 v 0.1875 h -3.01563 v -0.1875 h 0.26563 q 0.4375,0 0.64062,-0.29688 0.10938,-0.15625 0.10938,-0.76562 v -4.5625 q 0,-0.65625 -0.15625,-0.82813 -0.20313,-0.21875 -0.59375,-0.21875 h -0.26563 v -0.20312 h 2.5625 q 1.125,0 1.65625,0.17187 0.53125,0.15625 0.90625,0.60938 0.375,0.4375 0.375,1.04687 0,0.64063 -0.42187,1.125 -0.42188,0.48438 -1.3125,0.67188 l 1.45312,2.03125 q 0.5,0.6875 0.85938,0.92187 0.35937,0.23438 0.9375,0.29688 z m -5.01563,-3.625 q 0.10938,0 0.17188,0 0.0781,0 0.125,0 1,0 1.51562,-0.4375 0.51563,-0.4375 0.51563,-1.10938 0,-0.65625 -0.42188,-1.0625 -0.40625,-0.42187 -1.09375,-0.42187 -0.29687,0 -0.8125,0.0937 z m 6.06077,0.65625 q -0.0156,1.0625 0.51562,1.65625 0.51563,0.60937 1.21875,0.60937 0.46875,0 0.8125,-0.25 0.34375,-0.26562 0.57813,-0.89062 l 0.15625,0.10937 q -0.10938,0.70313 -0.64063,1.29688 -0.51562,0.57812 -1.29687,0.57812 -0.85938,0 -1.48438,-0.65625 -0.60937,-0.67187 -0.60937,-1.8125 0,-1.21875 0.625,-1.89062 0.64062,-0.6875 1.57812,-0.6875 0.79688,0 1.3125,0.53125 0.51563,0.51562 0.51563,1.40625 z m 0,-0.29688 h 2.20312 q -0.0312,-0.46875 -0.10937,-0.65625 -0.14063,-0.28125 -0.39063,-0.45312 -0.25,-0.17188 -0.53125,-0.17188 -0.4375,0 -0.78125,0.34375 -0.34375,0.32813 -0.39062,0.9375 z m 5.30787,-3.0625 v 1.5625 h 1.10938 v 0.35938 h -1.10938 v 3.09375 q 0,0.46875 0.125,0.625 0.14063,0.15625 0.34375,0.15625 0.17188,0 0.32813,-0.0937 0.17187,-0.10938 0.25,-0.32813 h 0.20312 q -0.17187,0.51563 -0.51562,0.78125 -0.32813,0.25 -0.67188,0.25 -0.25,0 -0.48437,-0.125 -0.21875,-0.14062 -0.32813,-0.39062 -0.10937,-0.25 -0.10937,-0.76563 v -3.20312 h -0.75 v -0.17188 q 0.28125,-0.10937 0.57812,-0.375 0.29688,-0.28125 0.53125,-0.65625 0.125,-0.20312 0.34375,-0.71875 z m 2.97627,1.42188 v 1.07812 q 0.59375,-1.07812 1.21875,-1.07812 0.28125,0 0.46875,0.17187 0.1875,0.17188 0.1875,0.40625 0,0.20313 -0.14062,0.34375 -0.125,0.14063 -0.3125,0.14063 -0.1875,0 -0.40625,-0.17188 -0.21875,-0.1875 -0.32813,-0.1875 -0.0937,0 -0.20312,0.10938 -0.23438,0.20312 -0.48438,0.70312 v 2.28125 q 0,0.39063 0.0937,0.59375 0.0625,0.14063 0.23438,0.23438 0.17187,0.0937 0.5,0.0937 v 0.1875 h -2.4375 v -0.1875 q 0.35937,0 0.53125,-0.10938 0.14062,-0.0937 0.1875,-0.26562 0.0312,-0.0937 0.0312,-0.51563 v -1.84375 q 0,-0.82812 -0.0469,-0.98437 -0.0312,-0.15625 -0.125,-0.23438 -0.0781,-0.0781 -0.21875,-0.0781 -0.15625,0 -0.35937,0.0781 l -0.0625,-0.1875 1.45312,-0.57812 z m 3.36112,-2.5 q 0.21875,0 0.375,0.15625 0.15625,0.15625 0.15625,0.375 0,0.21875 -0.15625,0.375 -0.15625,0.15625 -0.375,0.15625 -0.21875,0 -0.375,-0.15625 -0.15625,-0.15625 -0.15625,-0.375 0,-0.21875 0.15625,-0.375 0.15625,-0.15625 0.375,-0.15625 z m 0.4375,2.5 v 3.82812 q 0,0.45313 0.0625,0.60938 0.0625,0.14062 0.1875,0.21875 0.125,0.0625 0.46875,0.0625 v 0.1875 h -2.3125 v -0.1875 q 0.34375,0 0.45312,-0.0625 0.125,-0.0781 0.1875,-0.23438 0.0781,-0.15625 0.0781,-0.59375 v -1.82812 q 0,-0.78125 -0.0469,-1.01563 -0.0312,-0.15625 -0.10937,-0.21875 -0.0781,-0.0781 -0.21875,-0.0781 -0.14063,0 -0.34375,0.0781 l -0.0781,-0.1875 1.4375,-0.57812 z m 2.1169,1.9375 q -0.0156,1.0625 0.51562,1.65625 0.51563,0.60937 1.21875,0.60937 0.46875,0 0.8125,-0.25 0.34375,-0.26562 0.57813,-0.89062 l 0.15625,0.10937 q -0.10938,0.70313 -0.64063,1.29688 -0.51562,0.57812 -1.29687,0.57812 -0.85938,0 -1.48438,-0.65625 -0.60937,-0.67187 -0.60937,-1.8125 0,-1.21875 0.625,-1.89062 0.64062,-0.6875 1.57812,-0.6875 0.79688,0 1.3125,0.53125 0.51563,0.51562 0.51563,1.40625 z m 0,-0.29688 h 2.20312 q -0.0312,-0.46875 -0.10937,-0.65625 -0.14063,-0.28125 -0.39063,-0.45312 -0.25,-0.17188 -0.53125,-0.17188 -0.4375,0 -0.78125,0.34375 -0.34375,0.32813 -0.39062,0.9375 z m 3.68287,-1.5 h 2.23438 v 0.1875 h -0.14063 q -0.20312,0 -0.3125,0.10938 -0.10937,0.0937 -0.10937,0.26562 0,0.17188 0.10937,0.42188 l 1.10938,2.64062 1.10937,-2.73437 q 0.125,-0.29688 0.125,-0.4375 0,-0.0781 -0.0469,-0.125 -0.0469,-0.0781 -0.14063,-0.10938 -0.0937,-0.0312 -0.35937,-0.0312 v -0.1875 h 1.5625 v 0.1875 q -0.28125,0.0312 -0.375,0.10938 -0.1875,0.15625 -0.32813,0.53125 l -1.70312,4.07812 h -0.20313 l -1.70312,-4.01562 q -0.10938,-0.28125 -0.21875,-0.40625 -0.10938,-0.125 -0.26563,-0.20313 -0.0937,-0.0469 -0.34375,-0.0937 z m 6.375,1.79688 q -0.0156,1.0625 0.51563,1.65625 0.51562,0.60937 1.21875,0.60937 0.46875,0 0.8125,-0.25 0.34375,-0.26562 0.57812,-0.89062 l 0.15625,0.10937 q -0.10937,0.70313 -0.64062,1.29688 -0.51563,0.57812 -1.29688,0.57812 -0.85937,0 -1.48437,-0.65625 -0.60938,-0.67187 -0.60938,-1.8125 0,-1.21875 0.625,-1.89062 0.64063,-0.6875 1.57813,-0.6875 0.79687,0 1.3125,0.53125 0.51562,0.51562 0.51562,1.40625 z m 0,-0.29688 h 2.20313 q -0.0312,-0.46875 -0.10938,-0.65625 -0.14062,-0.28125 -0.39062,-0.45312 -0.25,-0.17188 -0.53125,-0.17188 -0.4375,0 -0.78125,0.34375 -0.34375,0.32813 -0.39063,0.9375 z m 7.29225,2.73438 q -0.35937,0.35937 -0.6875,0.51562 -0.32812,0.15625 -0.71875,0.15625 -0.78125,0 -1.35937,-0.64062 -0.57813,-0.65625 -0.57813,-1.6875 0,-1.01563 0.64063,-1.85938 0.64062,-0.85937 1.65625,-0.85937 0.625,0 1.04687,0.39062 v -0.875 q 0,-0.8125 -0.0469,-1 -0.0312,-0.1875 -0.125,-0.25 -0.0781,-0.0781 -0.20313,-0.0781 -0.14062,0 -0.35937,0.0781 l -0.0625,-0.17187 1.42187,-0.59375 h 0.23438 v 5.51562 q 0,0.84375 0.0312,1.03125 0.0469,0.17188 0.125,0.25 0.0937,0.0781 0.20312,0.0781 0.14063,0 0.375,-0.0937 l 0.0625,0.1875 -1.42187,0.57812 H 72.4132 Z m 0,-0.375 v -2.45313 q -0.0312,-0.34375 -0.1875,-0.64062 -0.15625,-0.29688 -0.42187,-0.4375 -0.25,-0.15625 -0.5,-0.15625 -0.45313,0 -0.8125,0.42187 -0.46875,0.53125 -0.46875,1.57813 0,1.04687 0.45312,1.60937 0.45313,0.5625 1.01563,0.5625 0.46875,0 0.92187,-0.48437 z"
     fill-rule="nonzero"
     id="path49" />
  <path
     fill="#fef163"
     d="m 310.33725,237.15353 v 0 c 0,-12.68079 21.41278,-22.9606 47.82678,-22.9606 v 0 c 26.414,0 47.82678,10.27981 47.82678,22.9606 v 0 c 0,12.68082 -21.41278,22.96063 -47.82678,22.96063 v 0 c -26.414,0 -47.82678,-10.27981 -47.82678,-22.96063 z"
     fill-rule="evenodd"
     id="path51" />
  <path
     stroke="#000000"
     stroke-width="1"
     stroke-linejoin="round"
     stroke-linecap="butt"
     d="m 310.33725,237.15353 v 0 c 0,-12.68079 21.41278,-22.9606 47.82678,-22.9606 v 0 c 26.414,0 47.82678,10.27981 47.82678,22.9606 v 0 c 0,12.68082 -21.41278,22.96063 -47.82678,22.96063 v 0 c -26.414,0 -47.82678,-10.27981 -47.82678,-22.96063 z"
     fill-rule="evenodd"
     id="path53" />
  <path
     fill="#000000"
     d="m 343.28064,230.6748 q 0,-1.89063 1.01562,-2.96875 1.03129,-1.07813 2.64066,-1.07813 1.04688,0 1.89063,0.51563 0.85937,0.5 1.29687,1.40625 0.45313,0.89062 0.45313,2.04687 0,1.15625 -0.46875,2.07813 -0.46875,0.90625 -1.32813,1.375 -0.85937,0.46875 -1.85937,0.46875 -1.07813,0 -1.92191,-0.51563 -0.84375,-0.51562 -1.28125,-1.40625 -0.4375,-0.90625 -0.4375,-1.92187 z m 1.04687,0.0156 q 0,1.375 0.73438,2.17188 0.73441,0.79687 1.85941,0.79687 1.14062,0 1.875,-0.79687 0.73437,-0.8125 0.73437,-2.28125 0,-0.92188 -0.3125,-1.60938 -0.3125,-0.70312 -0.92187,-1.07812 -0.60938,-0.39063 -1.35938,-0.39063 -1.07812,0 -1.84378,0.73438 -0.76563,0.73437 -0.76563,2.45312 z m 8.28879,3.70313 h -0.85937 v -7.625 h 0.9375 v 2.71875 q 0.59375,-0.75 1.5,-0.75 0.51562,0 0.96875,0.21875 0.45312,0.20312 0.75,0.57812 0.29687,0.35938 0.45312,0.89063 0.17188,0.53125 0.17188,1.125 0,1.42187 -0.70313,2.20312 -0.70312,0.76563 -1.6875,0.76563 -0.96875,0 -1.53125,-0.8125 z m 0,-2.79688 q 0,0.98438 0.26563,1.42188 0.4375,0.73437 1.1875,0.73437 0.625,0 1.0625,-0.53125 0.45312,-0.54687 0.45312,-1.59375 0,-1.07812 -0.4375,-1.59375 -0.42187,-0.51562 -1.03125,-0.51562 -0.60937,0 -1.0625,0.53125 -0.4375,0.53125 -0.4375,1.54687 z m 5.06714,-3.75 v -1.07812 h 0.9375 v 1.07812 z m -1.1875,8.6875 0.17188,-0.79687 q 0.28125,0.0781 0.4375,0.0781 0.29687,0 0.4375,-0.1875 0.14062,-0.1875 0.14062,-0.95312 v -5.8125 h 0.9375 v 5.82812 q 0,1.03125 -0.26562,1.42188 -0.34375,0.53125 -1.125,0.53125 -0.39063,0 -0.73438,-0.10938 z m 7.33618,-3.92187 0.96875,0.125 q -0.23437,0.84375 -0.85937,1.3125 -0.60938,0.46875 -1.57813,0.46875 -1.20312,0 -1.92187,-0.75 -0.70313,-0.75 -0.70313,-2.09375 0,-1.39063 0.71875,-2.15625 0.71875,-0.78125 1.85938,-0.78125 1.10937,0 1.8125,0.76562 0.70312,0.75 0.70312,2.125 0,0.0781 0,0.23438 h -4.125 q 0.0469,0.92187 0.51563,1.40625 0.46875,0.48437 1.15625,0.48437 0.51562,0 0.875,-0.26562 0.35937,-0.28125 0.57812,-0.875 z m -3.07812,-1.51563 h 3.09375 q -0.0625,-0.6875 -0.35938,-1.04687 -0.45312,-0.53125 -1.15625,-0.53125 -0.64062,0 -1.09375,0.4375 -0.4375,0.42187 -0.48437,1.14062 z m 8.83276,1.26563 0.92188,0.125 q -0.15625,0.95312 -0.78125,1.5 -0.625,0.53125 -1.53125,0.53125 -1.125,0 -1.8125,-0.73438 -0.6875,-0.75 -0.6875,-2.125 0,-0.90625 0.29687,-1.57812 0.29688,-0.67188 0.89063,-1 0.60937,-0.34375 1.32812,-0.34375 0.89063,0 1.46875,0.46875 0.57813,0.45312 0.73438,1.28125 l -0.90625,0.14062 q -0.14063,-0.54687 -0.46875,-0.82812 -0.32813,-0.28125 -0.79688,-0.28125 -0.70312,0 -1.15625,0.51562 -0.4375,0.5 -0.4375,1.59375 0,1.10938 0.42188,1.625 0.4375,0.5 1.125,0.5 0.54687,0 0.90625,-0.34375 0.375,-0.34375 0.48437,-1.04687 z m 3.76563,1.1875 0.125,0.82812 q -0.39063,0.0937 -0.70313,0.0937 -0.5,0 -0.78125,-0.15625 -0.28125,-0.17187 -0.40625,-0.4375 -0.10937,-0.26562 -0.10937,-1.10937 v -3.17188 h -0.6875 v -0.73437 h 0.6875 v -1.35938 l 0.9375,-0.5625 v 1.92188 h 0.9375 v 0.73437 h -0.9375 v 3.23438 q 0,0.39062 0.0469,0.51562 0.0469,0.10938 0.15625,0.1875 0.10938,0.0625 0.32813,0.0625 0.15625,0 0.40625,-0.0469 z"
     fill-rule="nonzero"
     id="path55" />
  <path
     fill="#000000"
     d="m 342.1189,244.40918 v -0.90625 h 3.23441 v 2.82812 q -0.75004,0.59375 -1.54691,0.89063 -0.78125,0.29687 -1.60938,0.29687 -1.125,0 -2.04687,-0.46875 -0.92188,-0.48437 -1.39063,-1.39062 -0.46875,-0.92188 -0.46875,-2.04688 0,-1.10937 0.46875,-2.07812 0.46875,-0.96875 1.34375,-1.4375 0.875,-0.46875 2.01563,-0.46875 0.82812,0 1.48437,0.28125 0.67188,0.26562 1.04688,0.75 0.39062,0.46875 0.59378,1.23437 l -0.92191,0.25 q -0.17187,-0.57812 -0.42187,-0.90625 -0.25,-0.34375 -0.73438,-0.53125 -0.46875,-0.20312 -1.04687,-0.20312 -0.6875,0 -1.20313,0.21875 -0.5,0.20312 -0.8125,0.54687 -0.29687,0.34375 -0.46875,0.75 -0.29687,0.70313 -0.29687,1.53125 0,1.03125 0.34375,1.71875 0.35937,0.67188 1.03125,1.01563 0.67187,0.32812 1.42187,0.32812 0.65625,0 1.28125,-0.25 0.625,-0.25 0.95313,-0.54687 v -1.40625 z m 4.58566,2.98437 v -5.53125 h 0.84375 v 0.84375 q 0.32813,-0.59375 0.59375,-0.78125 0.28125,-0.1875 0.60938,-0.1875 0.46875,0 0.95312,0.3125 l -0.3125,0.85938 q -0.34375,-0.20313 -0.6875,-0.20313 -0.3125,0 -0.5625,0.1875 -0.23437,0.1875 -0.34375,0.51563 -0.15625,0.5 -0.15625,1.09375 v 2.89062 z m 7.17359,-0.6875 q -0.53125,0.45313 -1.01563,0.64063 -0.46875,0.17187 -1.01562,0.17187 -0.92188,0 -1.40625,-0.4375 -0.48438,-0.45312 -0.48438,-1.14062 0,-0.40625 0.17188,-0.73438 0.1875,-0.34375 0.48437,-0.54687 0.3125,-0.20313 0.6875,-0.3125 0.26563,-0.0625 0.82813,-0.14063 1.125,-0.125 1.67187,-0.3125 0,-0.20312 0,-0.25 0,-0.57812 -0.26562,-0.8125 -0.35938,-0.3125 -1.0625,-0.3125 -0.65625,0 -0.98438,0.23438 -0.3125,0.23437 -0.45312,0.8125 l -0.92188,-0.125 q 0.125,-0.57813 0.40625,-0.9375 0.29688,-0.375 0.82813,-0.5625 0.54687,-0.20313 1.25,-0.20313 0.71875,0 1.15625,0.17188 0.4375,0.17187 0.64062,0.42187 0.21875,0.25 0.29688,0.64063 0.0469,0.23437 0.0469,0.85937 v 1.25 q 0,1.29688 0.0625,1.65625 0.0625,0.34375 0.23438,0.65625 h -0.96875 q -0.15625,-0.29687 -0.1875,-0.6875 z m -0.0781,-2.07812 q -0.51562,0.20312 -1.53125,0.34375 -0.57812,0.0781 -0.82812,0.1875 -0.23438,0.10937 -0.35938,0.3125 -0.125,0.1875 -0.125,0.4375 0,0.375 0.28125,0.625 0.28125,0.25 0.82813,0.25 0.53125,0 0.95312,-0.23438 0.42188,-0.23437 0.625,-0.65625 0.15625,-0.3125 0.15625,-0.9375 z m 2.02027,1.10937 0.92187,-0.14062 q 0.0781,0.5625 0.4375,0.85937 0.35938,0.29688 1,0.29688 0.64063,0 0.95313,-0.26563 0.3125,-0.26562 0.3125,-0.625 0,-0.3125 -0.28125,-0.5 -0.1875,-0.125 -0.95313,-0.3125 -1.03125,-0.26562 -1.4375,-0.45312 -0.39062,-0.1875 -0.59375,-0.51563 -0.20312,-0.34375 -0.20312,-0.75 0,-0.35937 0.17187,-0.67187 0.17188,-0.32813 0.45313,-0.53125 0.21875,-0.15625 0.59375,-0.26563 0.39062,-0.125 0.8125,-0.125 0.65625,0 1.14062,0.1875 0.5,0.1875 0.73438,0.51563 0.23437,0.3125 0.3125,0.85937 l -0.90625,0.125 q -0.0625,-0.4375 -0.375,-0.67187 -0.29688,-0.23438 -0.82813,-0.23438 -0.65625,0 -0.9375,0.21875 -0.26562,0.20313 -0.26562,0.48438 0,0.1875 0.10937,0.32812 0.125,0.15625 0.35938,0.25 0.14062,0.0625 0.82812,0.25 1,0.26563 1.39063,0.4375 0.39062,0.15625 0.60937,0.48438 0.23438,0.3125 0.23438,0.79687 0,0.46875 -0.28125,0.89063 -0.26563,0.40625 -0.78125,0.64062 -0.51563,0.21875 -1.17188,0.21875 -1.07812,0 -1.64062,-0.4375 -0.5625,-0.45312 -0.71875,-1.34375 z m 5.70312,3.78125 v -7.65625 h 0.85938 v 0.71875 q 0.29687,-0.42187 0.67187,-0.625 0.39063,-0.21875 0.92188,-0.21875 0.70312,0 1.25,0.375 0.54687,0.35938 0.8125,1.03125 0.28125,0.65625 0.28125,1.45313 0,0.84375 -0.3125,1.53125 -0.29688,0.67187 -0.875,1.03125 -0.57813,0.35937 -1.21875,0.35937 -0.46875,0 -0.84375,-0.1875 -0.375,-0.20312 -0.60938,-0.51562 v 2.70312 z m 0.84375,-4.85937 q 0,1.0625 0.4375,1.57812 0.4375,0.51563 1.04688,0.51563 0.625,0 1.0625,-0.53125 0.45312,-0.53125 0.45312,-1.64063 0,-1.04687 -0.4375,-1.57812 -0.4375,-0.53125 -1.04687,-0.53125 -0.59375,0 -1.0625,0.5625 -0.45313,0.5625 -0.45313,1.625 z m 8.86401,0.95312 0.96875,0.125 q -0.23437,0.84375 -0.85937,1.3125 -0.60938,0.46875 -1.57813,0.46875 -1.20312,0 -1.92187,-0.75 -0.70313,-0.75 -0.70313,-2.09375 0,-1.39062 0.71875,-2.15625 0.71875,-0.78125 1.85938,-0.78125 1.10937,0 1.8125,0.76563 0.70312,0.75 0.70312,2.125 0,0.0781 0,0.23437 h -4.125 q 0.0469,0.92188 0.51563,1.40625 0.46875,0.48438 1.15625,0.48438 0.51562,0 0.875,-0.26563 0.35937,-0.28125 0.57812,-0.875 z m -3.07812,-1.51562 h 3.09375 q -0.0625,-0.6875 -0.35938,-1.04688 -0.45312,-0.53125 -1.15625,-0.53125 -0.64062,0 -1.09375,0.4375 -0.4375,0.42188 -0.48437,1.14063 z m 8.80151,3.29687 v -0.70312 q -0.51562,0.82812 -1.54687,0.82812 -0.65625,0 -1.21875,-0.35937 -0.54688,-0.375 -0.85938,-1.01563 -0.29687,-0.65625 -0.29687,-1.5 0,-0.82812 0.28125,-1.5 0.28125,-0.6875 0.82812,-1.04687 0.54688,-0.35938 1.23438,-0.35938 0.5,0 0.89062,0.21875 0.39063,0.20313 0.625,0.54688 v -2.73438 h 0.9375 v 7.625 z m -2.95312,-2.75 q 0,1.04688 0.4375,1.57813 0.45312,0.53125 1.0625,0.53125 0.60937,0 1.03125,-0.5 0.4375,-0.51563 0.4375,-1.53125 0,-1.14063 -0.4375,-1.67188 -0.4375,-0.53125 -1.07813,-0.53125 -0.60937,0 -1.03125,0.51563 -0.42187,0.5 -0.42187,1.60937 z"
     fill-rule="nonzero"
     id="path57" />
  <path
     fill="#c5efb4"
     d="m 44.40026,298.56823 h 77.38582 v 37.66928 H 44.40026 Z"
     fill-rule="evenodd"
     id="path59" />
  <path
     stroke="#000000"
     stroke-width="1"
     stroke-linejoin="round"
     stroke-linecap="butt"
     d="m 44.40026,298.56823 h 77.38582 v 37.66928 H 44.40026 Z"
     fill-rule="evenodd"
     id="path61" />
  <path
     fill="#000000"
     d="m 64.76895,306.79788 v 2.75 H 64.5502 q -0.0937,-0.79688 -0.375,-1.26563 -0.26563,-0.46875 -0.78125,-0.73437 -0.5,-0.28125 -1.03125,-0.28125 -0.60938,0 -1.01563,0.375 -0.39062,0.35937 -0.39062,0.84375 0,0.35937 0.25,0.65625 0.35937,0.4375 1.71875,1.17187 1.125,0.59375 1.53125,0.92188 0.40625,0.3125 0.625,0.75 0.21875,0.4375 0.21875,0.90625 0,0.90625 -0.70313,1.5625 -0.70312,0.65625 -1.79687,0.65625 -0.34375,0 -0.65625,-0.0625 -0.17188,-0.0312 -0.75,-0.20313 -0.57813,-0.1875 -0.71875,-0.1875 -0.15625,0 -0.25,0.0937 -0.0781,0.0781 -0.10938,0.35938 h -0.21875 v -2.73438 h 0.21875 q 0.15625,0.85938 0.40625,1.28125 0.26563,0.42188 0.78125,0.70313 0.53125,0.28125 1.17188,0.28125 0.73437,0 1.15625,-0.375 0.42187,-0.39063 0.42187,-0.92188 0,-0.29687 -0.15625,-0.59375 -0.15625,-0.29687 -0.5,-0.54687 -0.23437,-0.1875 -1.25,-0.75 -1.01562,-0.57813 -1.45312,-0.90625 -0.42188,-0.34375 -0.65625,-0.75 -0.21875,-0.42188 -0.21875,-0.90625 0,-0.85938 0.65625,-1.46875 0.65625,-0.625 1.67187,-0.625 0.625,0 1.34375,0.3125 0.32813,0.14062 0.45313,0.14062 0.15625,0 0.25,-0.0937 0.10937,-0.0937 0.15625,-0.35937 z m 2.45508,4.78125 q -0.0156,1.1875 0.57812,1.875 0.57813,0.67187 1.375,0.67187 0.53125,0 0.92188,-0.28125 0.39062,-0.29687 0.65625,-1 l 0.17187,0.125 q -0.125,0.79688 -0.71875,1.46875 -0.57812,0.65625 -1.46875,0.65625 -0.96875,0 -1.65625,-0.75 -0.6875,-0.76562 -0.6875,-2.03125 0,-1.375 0.70313,-2.14062 0.70312,-0.78125 1.76562,-0.78125 0.90625,0 1.48438,0.59375 0.57812,0.59375 0.57812,1.59375 z m 0,-0.34375 h 2.48437 q -0.0312,-0.51563 -0.125,-0.71875 -0.14062,-0.32813 -0.4375,-0.51563 -0.29687,-0.1875 -0.60937,-0.1875 -0.48438,0 -0.875,0.375 -0.375,0.375 -0.4375,1.04688 z m 7.4668,2.90625 q -0.82813,0.64062 -1.04688,0.75 -0.3125,0.14062 -0.67187,0.14062 -0.54688,0 -0.92188,-0.375 -0.35937,-0.39062 -0.35937,-1 0,-0.40625 0.1875,-0.6875 0.23437,-0.39062 0.82812,-0.73437 0.59375,-0.35938 1.98438,-0.875 v -0.20313 q 0,-0.8125 -0.26563,-1.10937 -0.25,-0.29688 -0.73437,-0.29688 -0.375,0 -0.59375,0.20313 -0.21875,0.20312 -0.21875,0.45312 l 0.0156,0.34375 q 0,0.26563 -0.14062,0.42188 -0.14063,0.14062 -0.35938,0.14062 -0.21875,0 -0.35937,-0.15625 -0.125,-0.15625 -0.125,-0.40625 0,-0.51562 0.51562,-0.9375 0.51563,-0.42187 1.4375,-0.42187 0.71875,0 1.17188,0.25 0.34375,0.17187 0.51562,0.5625 0.10938,0.25 0.10938,1.03125 v 1.82812 q 0,0.76563 0.0156,0.9375 0.0312,0.17188 0.0937,0.23438 0.0781,0.0469 0.17188,0.0469 0.0937,0 0.15625,-0.0312 0.125,-0.0781 0.46875,-0.4375 v 0.32813 q -0.65625,0.89062 -1.25,0.89062 -0.28125,0 -0.45313,-0.20312 -0.17187,-0.20313 -0.17187,-0.6875 z m 0,-0.375 v -2.04688 q -0.89063,0.35938 -1.14063,0.5 -0.46875,0.26563 -0.67187,0.54688 -0.20313,0.28125 -0.20313,0.60937 0,0.42188 0.25,0.70313 0.26563,0.28125 0.59375,0.28125 0.4375,0 1.17188,-0.59375 z m 3.85742,-4.375 v 1.21875 q 0.67187,-1.21875 1.375,-1.21875 0.32812,0 0.53125,0.20312 0.21875,0.1875 0.21875,0.45313 0,0.23437 -0.15625,0.39062 -0.15625,0.15625 -0.35938,0.15625 -0.20312,0 -0.46875,-0.20312 -0.25,-0.20313 -0.375,-0.20313 -0.10937,0 -0.23437,0.10938 -0.25,0.25 -0.53125,0.79687 v 2.57813 q 0,0.4375 0.10937,0.67187 0.0781,0.15625 0.26563,0.26563 0.1875,0.0937 0.5625,0.0937 v 0.21875 h -2.75 v -0.21875 q 0.40625,0 0.60937,-0.125 0.14063,-0.0937 0.20313,-0.29688 0.0312,-0.0937 0.0312,-0.5625 v -2.07812 q 0,-0.9375 -0.0469,-1.10938 -0.0312,-0.1875 -0.14062,-0.26562 -0.0937,-0.0937 -0.25,-0.0937 -0.1875,0 -0.40625,0.0937 l -0.0625,-0.21875 1.625,-0.65625 z m 6.98047,3.48437 q -0.21875,1.0625 -0.85938,1.64063 -0.625,0.57812 -1.39062,0.57812 -0.92188,0 -1.60938,-0.76562 -0.67187,-0.78125 -0.67187,-2.07813 0,-1.26562 0.75,-2.0625 0.76562,-0.79687 1.8125,-0.79687 0.79687,0 1.29687,0.42187 0.51563,0.42188 0.51563,0.875 0,0.21875 -0.14063,0.35938 -0.14062,0.14062 -0.40625,0.14062 -0.34375,0 -0.51562,-0.23437 -0.10938,-0.10938 -0.14063,-0.45313 -0.0312,-0.35937 -0.23437,-0.53125 -0.20313,-0.1875 -0.5625,-0.1875 -0.59375,0 -0.95313,0.4375 -0.46875,0.57813 -0.46875,1.51563 0,0.96875 0.46875,1.70312 0.46875,0.73438 1.28125,0.73438 0.57813,0 1.03125,-0.39063 0.3125,-0.26562 0.625,-0.98437 z m 2.34179,-6.28125 v 3.92188 q 0.65625,-0.71875 1.03125,-0.92188 0.375,-0.20312 0.76563,-0.20312 0.45312,0 0.78125,0.26562 0.32812,0.25 0.48437,0.78125 0.10938,0.375 0.10938,1.375 v 1.89063 q 0,0.51562 0.0781,0.70312 0.0625,0.14063 0.20313,0.21875 0.14062,0.0781 0.51562,0.0781 v 0.21875 h -2.64062 v -0.21875 h 0.125 q 0.375,0 0.51562,-0.10938 0.15625,-0.10937 0.21875,-0.32812 0.0156,-0.0937 0.0156,-0.5625 v -1.89063 q 0,-0.875 -0.0937,-1.15625 -0.0937,-0.28125 -0.29688,-0.40625 -0.1875,-0.14062 -0.46875,-0.14062 -0.29687,0 -0.60937,0.15625 -0.29688,0.14062 -0.73438,0.60937 v 2.82813 q 0,0.5625 0.0625,0.70312 0.0625,0.125 0.21875,0.21875 0.17188,0.0781 0.57813,0.0781 v 0.21875 h -2.65625 v -0.21875 q 0.35937,0 0.5625,-0.10938 0.125,-0.0469 0.1875,-0.20312 0.0781,-0.17188 0.0781,-0.6875 v -4.85938 q 0,-0.90625 -0.0469,-1.10937 -0.0469,-0.21875 -0.14063,-0.29688 -0.0937,-0.0781 -0.23437,-0.0781 -0.125,0 -0.40625,0.0937 l -0.0781,-0.20313 1.60938,-0.65625 z m 10.04688,2.79688 q 1.21875,0 1.95312,0.9375 0.625,0.78125 0.625,1.8125 0,0.71875 -0.34375,1.45312 -0.34375,0.73438 -0.95312,1.125 -0.59375,0.375 -1.34375,0.375 -1.21875,0 -1.92188,-0.96875 -0.60937,-0.82812 -0.60937,-1.82812 0,-0.75 0.35937,-1.46875 0.375,-0.73438 0.96875,-1.07813 0.59375,-0.35937 1.26563,-0.35937 z m -0.1875,0.39062 q -0.29688,0 -0.625,0.1875 -0.3125,0.17188 -0.5,0.64063 -0.1875,0.46875 -0.1875,1.1875 0,1.17187 0.45312,2.03125 0.46875,0.84375 1.23438,0.84375 0.5625,0 0.9375,-0.46875 0.375,-0.46875 0.375,-1.60938 0,-1.4375 -0.625,-2.25 -0.40625,-0.5625 -1.0625,-0.5625 z m 5.125,0.75 q 0.95312,-1.14062 1.79687,-1.14062 0.4375,0 0.75,0.21875 0.32813,0.21875 0.51563,0.73437 0.125,0.34375 0.125,1.07813 v 2.28125 q 0,0.51562 0.0781,0.70312 0.0781,0.14063 0.21875,0.21875 0.14063,0.0781 0.53125,0.0781 v 0.21875 h -2.65625 v -0.21875 h 0.10938 q 0.375,0 0.51562,-0.10938 0.15625,-0.10937 0.21875,-0.32812 0.0156,-0.0937 0.0156,-0.5625 v -2.1875 q 0,-0.73438 -0.1875,-1.0625 -0.1875,-0.34375 -0.64063,-0.34375 -0.70312,0 -1.39062,0.76562 v 2.82813 q 0,0.54687 0.0625,0.67187 0.0937,0.17188 0.23437,0.25 0.14063,0.0781 0.57813,0.0781 v 0.21875 h -2.65625 v -0.21875 h 0.125 q 0.40625,0 0.54687,-0.20313 0.14063,-0.20312 0.14063,-0.79687 v -1.98438 q 0,-0.96875 -0.0469,-1.17187 -0.0312,-0.21875 -0.125,-0.29688 -0.0937,-0.0781 -0.25,-0.0781 -0.15625,0 -0.39062,0.0937 l -0.0781,-0.21875 1.60938,-0.65625 h 0.25 z"
     fill-rule="nonzero"
     id="path63" />
  <path
     fill="#000000"
     d="m 63.19864,321.79788 v 1.75 h 1.25 v 0.42187 h -1.25 v 3.46875 q 0,0.53125 0.14062,0.71875 0.15625,0.17188 0.39063,0.17188 0.1875,0 0.375,-0.10938 0.1875,-0.125 0.28125,-0.35937 h 0.23437 q -0.21875,0.5625 -0.59375,0.85937 -0.375,0.29688 -0.76562,0.29688 -0.26563,0 -0.53125,-0.15625 -0.25,-0.15625 -0.375,-0.42188 -0.125,-0.28125 -0.125,-0.85937 v -3.60938 h -0.84375 v -0.20312 q 0.3125,-0.125 0.64062,-0.42188 0.34375,-0.3125 0.60938,-0.73437 0.14062,-0.23438 0.375,-0.8125 z m 3.34961,-1.20313 v 3.92188 q 0.65625,-0.71875 1.03125,-0.92188 0.375,-0.20312 0.76562,-0.20312 0.45313,0 0.78125,0.26562 0.32813,0.25 0.48438,0.78125 0.10937,0.375 0.10937,1.375 v 1.89063 q 0,0.51562 0.0781,0.70312 0.0625,0.14063 0.20312,0.21875 0.14063,0.0781 0.51563,0.0781 v 0.21875 h -2.64063 v -0.21875 h 0.125 q 0.375,0 0.51563,-0.10938 0.15625,-0.10937 0.21875,-0.32812 0.0156,-0.0937 0.0156,-0.5625 v -1.89063 q 0,-0.875 -0.0937,-1.15625 -0.0937,-0.28125 -0.29687,-0.40625 -0.1875,-0.14062 -0.46875,-0.14062 -0.29688,0 -0.60938,0.15625 -0.29687,0.14062 -0.73437,0.60937 v 2.82813 q 0,0.5625 0.0625,0.70312 0.0625,0.125 0.21875,0.21875 0.17187,0.0781 0.57812,0.0781 v 0.21875 h -2.65625 v -0.21875 q 0.35938,0 0.5625,-0.10938 0.125,-0.0469 0.1875,-0.20312 0.0781,-0.17188 0.0781,-0.6875 v -4.85938 q 0,-0.90625 -0.0469,-1.10937 -0.0469,-0.21875 -0.14062,-0.29688 -0.0937,-0.0781 -0.23438,-0.0781 -0.125,0 -0.40625,0.0937 l -0.0781,-0.20313 1.60937,-0.65625 z m 5.32812,4.98438 q -0.0156,1.1875 0.57813,1.875 0.57812,0.67187 1.375,0.67187 0.53125,0 0.92187,-0.28125 0.39063,-0.29687 0.65625,-1 l 0.17188,0.125 q -0.125,0.79688 -0.71875,1.46875 -0.57813,0.65625 -1.46875,0.65625 -0.96875,0 -1.65625,-0.75 -0.6875,-0.76562 -0.6875,-2.03125 0,-1.375 0.70312,-2.14062 0.70313,-0.78125 1.76563,-0.78125 0.90625,0 1.48437,0.59375 0.57813,0.59375 0.57813,1.59375 z m 0,-0.34375 h 2.48438 q -0.0312,-0.51563 -0.125,-0.71875 -0.14063,-0.32813 -0.4375,-0.51563 -0.29688,-0.1875 -0.60938,-0.1875 -0.48437,0 -0.875,0.375 -0.375,0.375 -0.4375,1.04688 z m 9.49805,-3.82813 v 3.125 h 1.45313 q 0.5,0 0.71875,-0.21875 0.23437,-0.21875 0.3125,-0.875 h 0.21875 v 2.6875 H 83.8588 q 0,-0.45312 -0.125,-0.67187 -0.10938,-0.21875 -0.3125,-0.32813 -0.20313,-0.10937 -0.59375,-0.10937 h -1.45313 v 2.5 q 0,0.60937 0.0781,0.79687 0.0625,0.14063 0.25,0.25 0.25,0.14063 0.53125,0.14063 h 0.29687 v 0.21875 h -3.42187 v -0.21875 h 0.28125 q 0.5,0 0.71875,-0.28125 0.14062,-0.1875 0.14062,-0.90625 V 322.376 q 0,-0.59375 -0.0781,-0.79687 -0.0469,-0.14063 -0.23438,-0.25 -0.25,-0.14063 -0.54687,-0.14063 h -0.28125 v -0.21875 h 5.92187 l 0.0781,1.75 h -0.20309 q -0.15625,-0.54687 -0.35937,-0.8125 -0.20313,-0.26562 -0.5,-0.375 -0.29688,-0.125 -0.92188,-0.125 z m 6.43945,-0.8125 v 7.10938 q 0,0.51562 0.0781,0.6875 0.0781,0.15625 0.21875,0.23437 0.15625,0.0781 0.57812,0.0781 v 0.21875 h -2.64062 v -0.21875 q 0.375,0 0.5,-0.0625 0.14062,-0.0781 0.21875,-0.25 0.0781,-0.1875 0.0781,-0.6875 v -4.875 q 0,-0.90625 -0.0469,-1.10938 -0.0312,-0.20312 -0.125,-0.28125 -0.0937,-0.0781 -0.23438,-0.0781 -0.15625,0 -0.39062,0.0937 l -0.0937,-0.20313 1.59375,-0.65625 z m 4.11524,2.79688 q 1.21875,0 1.95312,0.9375 0.625,0.78125 0.625,1.8125 0,0.71875 -0.34375,1.45312 -0.34375,0.73438 -0.95312,1.125 -0.59375,0.375 -1.34375,0.375 -1.21875,0 -1.92188,-0.96875 -0.60937,-0.82812 -0.60937,-1.82812 0,-0.75 0.35937,-1.46875 0.375,-0.73438 0.96875,-1.07813 0.59375,-0.35937 1.26563,-0.35937 z m -0.1875,0.39062 q -0.29688,0 -0.625,0.1875 -0.3125,0.17188 -0.5,0.64063 -0.1875,0.46875 -0.1875,1.1875 0,1.17187 0.45312,2.03125 0.46875,0.84375 1.23438,0.84375 0.5625,0 0.9375,-0.46875 0.375,-0.46875 0.375,-1.60938 0,-1.4375 -0.625,-2.25 -0.40625,-0.5625 -1.0625,-0.5625 z m 6.1875,-0.39062 q 1.21875,0 1.95312,0.9375 0.625,0.78125 0.625,1.8125 0,0.71875 -0.34375,1.45312 -0.34375,0.73438 -0.95312,1.125 -0.59375,0.375 -1.34375,0.375 -1.21875,0 -1.92188,-0.96875 -0.60937,-0.82812 -0.60937,-1.82812 0,-0.75 0.35937,-1.46875 0.375,-0.73438 0.96875,-1.07813 0.59375,-0.35937 1.26563,-0.35937 z m -0.1875,0.39062 q -0.29688,0 -0.625,0.1875 -0.3125,0.17188 -0.5,0.64063 -0.1875,0.46875 -0.1875,1.1875 0,1.17187 0.45312,2.03125 0.46875,0.84375 1.23438,0.84375 0.5625,0 0.9375,-0.46875 0.375,-0.46875 0.375,-1.60938 0,-1.4375 -0.625,-2.25 -0.40625,-0.5625 -1.0625,-0.5625 z m 5.14062,-0.39062 v 1.21875 q 0.67188,-1.21875 1.375,-1.21875 0.32813,0 0.53125,0.20312 0.21875,0.1875 0.21875,0.45313 0,0.23437 -0.15625,0.39062 -0.15625,0.15625 -0.35937,0.15625 -0.20313,0 -0.46875,-0.20312 -0.25,-0.20313 -0.375,-0.20313 -0.10938,0 -0.23438,0.10938 -0.25,0.25 -0.53125,0.79687 v 2.57813 q 0,0.4375 0.10938,0.67187 0.0781,0.15625 0.26562,0.26563 0.1875,0.0937 0.5625,0.0937 v 0.21875 h -2.75 v -0.21875 q 0.40625,0 0.60938,-0.125 0.14062,-0.0937 0.20312,-0.29688 0.0312,-0.0937 0.0312,-0.5625 v -2.07812 q 0,-0.9375 -0.0469,-1.10938 -0.0312,-0.1875 -0.14063,-0.26562 -0.0937,-0.0937 -0.25,-0.0937 -0.1875,0 -0.40625,0.0937 l -0.0625,-0.21875 1.625,-0.65625 z"
     fill-rule="nonzero"
     id="path65" />
  <path
     fill="#c5efb4"
     d="m 141.16927,298.56823 h 95.65353 v 37.66928 h -95.65353 z"
     fill-rule="evenodd"
     id="path67" />
  <path
     stroke="#000000"
     stroke-width="1"
     stroke-linejoin="round"
     stroke-linecap="butt"
     d="m 141.16927,298.56823 h 95.65353 v 37.66928 h -95.65353 z"
     fill-rule="evenodd"
     id="path69" />
  <path
     fill="#000000"
     d="m 172.00485,306.79788 v 2.75 h -0.21875 q -0.0937,-0.79688 -0.375,-1.26563 -0.26563,-0.46875 -0.78125,-0.73437 -0.5,-0.28125 -1.03125,-0.28125 -0.60938,0 -1.01563,0.375 -0.39062,0.35937 -0.39062,0.84375 0,0.35937 0.25,0.65625 0.35937,0.4375 1.71875,1.17187 1.125,0.59375 1.53125,0.92188 0.40625,0.3125 0.625,0.75 0.21875,0.4375 0.21875,0.90625 0,0.90625 -0.70313,1.5625 -0.70312,0.65625 -1.79687,0.65625 -0.34375,0 -0.65625,-0.0625 -0.17188,-0.0312 -0.75,-0.20313 -0.57813,-0.1875 -0.71875,-0.1875 -0.15625,0 -0.25,0.0937 -0.0781,0.0781 -0.10938,0.35938 h -0.21875 v -2.73438 h 0.21875 q 0.15625,0.85938 0.40625,1.28125 0.26563,0.42188 0.78125,0.70313 0.53125,0.28125 1.17188,0.28125 0.73437,0 1.15625,-0.375 0.42187,-0.39063 0.42187,-0.92188 0,-0.29687 -0.15625,-0.59375 -0.15625,-0.29687 -0.5,-0.54687 -0.23437,-0.1875 -1.25,-0.75 -1.01562,-0.57813 -1.45312,-0.90625 -0.42188,-0.34375 -0.65625,-0.75 -0.21875,-0.42188 -0.21875,-0.90625 0,-0.85938 0.65625,-1.46875 0.65625,-0.625 1.67187,-0.625 0.625,0 1.34375,0.3125 0.32813,0.14062 0.45313,0.14062 0.15625,0 0.25,-0.0937 0.10937,-0.0937 0.15625,-0.35937 z m 2.45508,4.78125 q -0.0156,1.1875 0.57812,1.875 0.57813,0.67187 1.375,0.67187 0.53125,0 0.92188,-0.28125 0.39062,-0.29687 0.65625,-1 l 0.17187,0.125 q -0.125,0.79688 -0.71875,1.46875 -0.57812,0.65625 -1.46875,0.65625 -0.96875,0 -1.65625,-0.75 -0.6875,-0.76562 -0.6875,-2.03125 0,-1.375 0.70313,-2.14062 0.70312,-0.78125 1.76562,-0.78125 0.90625,0 1.48438,0.59375 0.57812,0.59375 0.57812,1.59375 z m 0,-0.34375 h 2.48437 q -0.0312,-0.51563 -0.125,-0.71875 -0.14062,-0.32813 -0.4375,-0.51563 -0.29687,-0.1875 -0.60937,-0.1875 -0.48438,0 -0.875,0.375 -0.375,0.375 -0.4375,1.04688 z m 7.4668,2.90625 q -0.82813,0.64062 -1.04688,0.75 -0.3125,0.14062 -0.67187,0.14062 -0.54688,0 -0.92188,-0.375 -0.35937,-0.39062 -0.35937,-1 0,-0.40625 0.1875,-0.6875 0.23437,-0.39062 0.82812,-0.73437 0.59375,-0.35938 1.98438,-0.875 v -0.20313 q 0,-0.8125 -0.26563,-1.10937 -0.25,-0.29688 -0.73437,-0.29688 -0.375,0 -0.59375,0.20313 -0.21875,0.20312 -0.21875,0.45312 l 0.0156,0.34375 q 0,0.26563 -0.14062,0.42188 -0.14063,0.14062 -0.35938,0.14062 -0.21875,0 -0.35937,-0.15625 -0.125,-0.15625 -0.125,-0.40625 0,-0.51562 0.51562,-0.9375 0.51563,-0.42187 1.4375,-0.42187 0.71875,0 1.17188,0.25 0.34375,0.17187 0.51562,0.5625 0.10938,0.25 0.10938,1.03125 v 1.82812 q 0,0.76563 0.0156,0.9375 0.0312,0.17188 0.0937,0.23438 0.0781,0.0469 0.17188,0.0469 0.0937,0 0.15625,-0.0312 0.125,-0.0781 0.46875,-0.4375 v 0.32813 q -0.65625,0.89062 -1.25,0.89062 -0.28125,0 -0.45313,-0.20312 -0.17187,-0.20313 -0.17187,-0.6875 z m 0,-0.375 v -2.04688 q -0.89063,0.35938 -1.14063,0.5 -0.46875,0.26563 -0.67187,0.54688 -0.20313,0.28125 -0.20313,0.60937 0,0.42188 0.25,0.70313 0.26563,0.28125 0.59375,0.28125 0.4375,0 1.17188,-0.59375 z m 3.85742,-4.375 v 1.21875 q 0.67187,-1.21875 1.375,-1.21875 0.32812,0 0.53125,0.20312 0.21875,0.1875 0.21875,0.45313 0,0.23437 -0.15625,0.39062 -0.15625,0.15625 -0.35938,0.15625 -0.20312,0 -0.46875,-0.20312 -0.25,-0.20313 -0.375,-0.20313 -0.10937,0 -0.23437,0.10938 -0.25,0.25 -0.53125,0.79687 v 2.57813 q 0,0.4375 0.10937,0.67187 0.0781,0.15625 0.26563,0.26563 0.1875,0.0937 0.5625,0.0937 v 0.21875 h -2.75 v -0.21875 q 0.40625,0 0.60937,-0.125 0.14063,-0.0937 0.20313,-0.29688 0.0312,-0.0937 0.0312,-0.5625 v -2.07812 q 0,-0.9375 -0.0469,-1.10938 -0.0312,-0.1875 -0.14062,-0.26562 -0.0937,-0.0937 -0.25,-0.0937 -0.1875,0 -0.40625,0.0937 l -0.0625,-0.21875 1.625,-0.65625 z m 6.98047,3.48437 q -0.21875,1.0625 -0.85938,1.64063 -0.625,0.57812 -1.39062,0.57812 -0.92188,0 -1.60938,-0.76562 -0.67187,-0.78125 -0.67187,-2.07813 0,-1.26562 0.75,-2.0625 0.76562,-0.79687 1.8125,-0.79687 0.79687,0 1.29687,0.42187 0.51563,0.42188 0.51563,0.875 0,0.21875 -0.14063,0.35938 -0.14062,0.14062 -0.40625,0.14062 -0.34375,0 -0.51562,-0.23437 -0.10938,-0.10938 -0.14063,-0.45313 -0.0312,-0.35937 -0.23437,-0.53125 -0.20313,-0.1875 -0.5625,-0.1875 -0.59375,0 -0.95313,0.4375 -0.46875,0.57813 -0.46875,1.51563 0,0.96875 0.46875,1.70312 0.46875,0.73438 1.28125,0.73438 0.57813,0 1.03125,-0.39063 0.3125,-0.26562 0.625,-0.98437 z m 2.34179,-6.28125 v 3.92188 q 0.65625,-0.71875 1.03125,-0.92188 0.375,-0.20312 0.76563,-0.20312 0.45312,0 0.78125,0.26562 0.32812,0.25 0.48437,0.78125 0.10938,0.375 0.10938,1.375 v 1.89063 q 0,0.51562 0.0781,0.70312 0.0625,0.14063 0.20313,0.21875 0.14062,0.0781 0.51562,0.0781 v 0.21875 h -2.64062 v -0.21875 h 0.125 q 0.375,0 0.51562,-0.10938 0.15625,-0.10937 0.21875,-0.32812 0.0156,-0.0937 0.0156,-0.5625 v -1.89063 q 0,-0.875 -0.0937,-1.15625 -0.0937,-0.28125 -0.29688,-0.40625 -0.1875,-0.14062 -0.46875,-0.14062 -0.29687,0 -0.60937,0.15625 -0.29688,0.14062 -0.73438,0.60937 v 2.82813 q 0,0.5625 0.0625,0.70312 0.0625,0.125 0.21875,0.21875 0.17188,0.0781 0.57813,0.0781 v 0.21875 h -2.65625 v -0.21875 q 0.35937,0 0.5625,-0.10938 0.125,-0.0469 0.1875,-0.20312 0.0781,-0.17188 0.0781,-0.6875 v -4.85938 q 0,-0.90625 -0.0469,-1.10937 -0.0469,-0.21875 -0.14063,-0.29688 -0.0937,-0.0781 -0.23437,-0.0781 -0.125,0 -0.40625,0.0937 l -0.0781,-0.20313 1.60938,-0.65625 z m 8.78125,0 q 0.25,0 0.42188,0.17188 0.17187,0.17187 0.17187,0.42187 0,0.23438 -0.17187,0.42188 -0.17188,0.17187 -0.42188,0.17187 -0.23437,0 -0.42187,-0.17187 -0.17188,-0.1875 -0.17188,-0.42188 0,-0.25 0.17188,-0.42187 0.17187,-0.17188 0.42187,-0.17188 z m 0.5,2.79688 v 4.3125 q 0,0.51562 0.0625,0.6875 0.0781,0.15625 0.21875,0.23437 0.14063,0.0781 0.53125,0.0781 v 0.21875 h -2.60937 v -0.21875 q 0.39062,0 0.51562,-0.0625 0.14063,-0.0781 0.21875,-0.25 0.0781,-0.1875 0.0781,-0.6875 v -2.0625 q 0,-0.875 -0.0469,-1.125 -0.0469,-0.1875 -0.14062,-0.26563 -0.0781,-0.0781 -0.23438,-0.0781 -0.15625,0 -0.39062,0.0937 l -0.0781,-0.21875 1.60938,-0.65625 z m 3.03711,1.14062 q 0.95313,-1.14062 1.79688,-1.14062 0.4375,0 0.75,0.21875 0.32812,0.21875 0.51562,0.73437 0.125,0.34375 0.125,1.07813 v 2.28125 q 0,0.51562 0.0781,0.70312 0.0781,0.14063 0.21875,0.21875 0.14062,0.0781 0.53125,0.0781 v 0.21875 h -2.65625 v -0.21875 h 0.10937 q 0.375,0 0.51563,-0.10938 0.15625,-0.10937 0.21875,-0.32812 0.0156,-0.0937 0.0156,-0.5625 v -2.1875 q 0,-0.73438 -0.1875,-1.0625 -0.1875,-0.34375 -0.64062,-0.34375 -0.70313,0 -1.39063,0.76562 v 2.82813 q 0,0.54687 0.0625,0.67187 0.0937,0.17188 0.23438,0.25 0.14062,0.0781 0.57812,0.0781 v 0.21875 h -2.65625 v -0.21875 h 0.125 q 0.40625,0 0.54688,-0.20313 0.14062,-0.20312 0.14062,-0.79687 v -1.98438 q 0,-0.96875 -0.0469,-1.17187 -0.0312,-0.21875 -0.125,-0.29688 -0.0937,-0.0781 -0.25,-0.0781 -0.15625,0 -0.39063,0.0937 l -0.0781,-0.21875 1.60937,-0.65625 h 0.25 z"
     fill-rule="nonzero"
     id="path71" />
  <path
     fill="#000000"
     d="m 161.78024,321.79788 v 1.75 h 1.25 v 0.42187 h -1.25 v 3.46875 q 0,0.53125 0.14063,0.71875 0.15625,0.17188 0.39062,0.17188 0.1875,0 0.375,-0.10938 0.1875,-0.125 0.28125,-0.35937 h 0.23438 q -0.21875,0.5625 -0.59375,0.85937 -0.375,0.29688 -0.76563,0.29688 -0.26562,0 -0.53125,-0.15625 -0.25,-0.15625 -0.375,-0.42188 -0.125,-0.28125 -0.125,-0.85937 v -3.60938 h -0.84375 v -0.20312 q 0.3125,-0.125 0.64063,-0.42188 0.34375,-0.3125 0.60937,-0.73437 0.14063,-0.23438 0.375,-0.8125 z m 3.34961,-1.20313 v 3.92188 q 0.65625,-0.71875 1.03125,-0.92188 0.375,-0.20312 0.76562,-0.20312 0.45313,0 0.78125,0.26562 0.32813,0.25 0.48438,0.78125 0.10937,0.375 0.10937,1.375 v 1.89063 q 0,0.51562 0.0781,0.70312 0.0625,0.14063 0.20312,0.21875 0.14063,0.0781 0.51563,0.0781 v 0.21875 h -2.64063 v -0.21875 h 0.125 q 0.375,0 0.51563,-0.10938 0.15625,-0.10937 0.21875,-0.32812 0.0156,-0.0937 0.0156,-0.5625 v -1.89063 q 0,-0.875 -0.0937,-1.15625 -0.0937,-0.28125 -0.29687,-0.40625 -0.1875,-0.14062 -0.46875,-0.14062 -0.29688,0 -0.60938,0.15625 -0.29687,0.14062 -0.73437,0.60937 v 2.82813 q 0,0.5625 0.0625,0.70312 0.0625,0.125 0.21875,0.21875 0.17187,0.0781 0.57812,0.0781 v 0.21875 h -2.65625 v -0.21875 q 0.35938,0 0.5625,-0.10938 0.125,-0.0469 0.1875,-0.20312 0.0781,-0.17188 0.0781,-0.6875 v -4.85938 q 0,-0.90625 -0.0469,-1.10937 -0.0469,-0.21875 -0.14062,-0.29688 -0.0937,-0.0781 -0.23438,-0.0781 -0.125,0 -0.40625,0.0937 l -0.0781,-0.20313 1.60937,-0.65625 z m 5.32812,4.98438 q -0.0156,1.1875 0.57813,1.875 0.57812,0.67187 1.375,0.67187 0.53125,0 0.92187,-0.28125 0.39063,-0.29687 0.65625,-1 l 0.17188,0.125 q -0.125,0.79688 -0.71875,1.46875 -0.57813,0.65625 -1.46875,0.65625 -0.96875,0 -1.65625,-0.75 -0.6875,-0.76562 -0.6875,-2.03125 0,-1.375 0.70312,-2.14062 0.70313,-0.78125 1.76563,-0.78125 0.90625,0 1.48437,0.59375 0.57813,0.59375 0.57813,1.59375 z m 0,-0.34375 h 2.48438 q -0.0312,-0.51563 -0.125,-0.71875 -0.14063,-0.32813 -0.4375,-0.51563 -0.29688,-0.1875 -0.60938,-0.1875 -0.48437,0 -0.875,0.375 -0.375,0.375 -0.4375,1.04688 z m 7.24805,3.6875 v -0.21875 h 0.29688 q 0.51562,0 0.71875,-0.32813 0.125,-0.1875 0.125,-0.85937 V 322.376 q 0,-0.73437 -0.15625,-0.92187 -0.23438,-0.26563 -0.6875,-0.26563 h -0.29688 v -0.21875 h 3.23438 q 1.78125,0 2.70312,0.40625 0.9375,0.40625 1.5,1.35938 0.5625,0.9375 0.5625,2.17187 0,1.65625 -1,2.76563 -1.125,1.25 -3.45312,1.25 z m 2.26563,-0.57813 q 0.75,0.17188 1.25,0.17188 1.35937,0 2.25,-0.95313 0.90625,-0.96875 0.90625,-2.59375 0,-1.65625 -0.90625,-2.59375 -0.89063,-0.95312 -2.29688,-0.95312 -0.53125,0 -1.20312,0.17187 z m 8.15039,-4.95312 v 1.21875 q 0.67187,-1.21875 1.375,-1.21875 0.32812,0 0.53125,0.20312 0.21875,0.1875 0.21875,0.45313 0,0.23437 -0.15625,0.39062 -0.15625,0.15625 -0.35938,0.15625 -0.20312,0 -0.46875,-0.20312 -0.25,-0.20313 -0.375,-0.20313 -0.10937,0 -0.23437,0.10938 -0.25,0.25 -0.53125,0.79687 v 2.57813 q 0,0.4375 0.10937,0.67187 0.0781,0.15625 0.26563,0.26563 0.1875,0.0937 0.5625,0.0937 v 0.21875 h -2.75 v -0.21875 q 0.40625,0 0.60937,-0.125 0.14063,-0.0937 0.20313,-0.29688 0.0312,-0.0937 0.0312,-0.5625 v -2.07812 q 0,-0.9375 -0.0469,-1.10938 -0.0312,-0.1875 -0.14062,-0.26562 -0.0937,-0.0937 -0.25,-0.0937 -0.1875,0 -0.40625,0.0937 l -0.0625,-0.21875 1.625,-0.65625 z m 5.46484,4.75 q -0.82812,0.64062 -1.04687,0.75 -0.3125,0.14062 -0.67188,0.14062 -0.54687,0 -0.92187,-0.375 -0.35938,-0.39062 -0.35938,-1 0,-0.40625 0.1875,-0.6875 0.23438,-0.39062 0.82813,-0.73437 0.59375,-0.35938 1.98437,-0.875 v -0.20313 q 0,-0.8125 -0.26562,-1.10937 -0.25,-0.29688 -0.73438,-0.29688 -0.375,0 -0.59375,0.20313 -0.21875,0.20312 -0.21875,0.45312 l 0.0156,0.34375 q 0,0.26563 -0.14063,0.42188 -0.14062,0.14062 -0.35937,0.14062 -0.21875,0 -0.35938,-0.15625 -0.125,-0.15625 -0.125,-0.40625 0,-0.51562 0.51563,-0.9375 0.51562,-0.42187 1.4375,-0.42187 0.71875,0 1.17187,0.25 0.34375,0.17187 0.51563,0.5625 0.10937,0.25 0.10937,1.03125 v 1.82812 q 0,0.76563 0.0156,0.9375 0.0312,0.17188 0.0937,0.23438 0.0781,0.0469 0.17187,0.0469 0.0937,0 0.15625,-0.0312 0.125,-0.0781 0.46875,-0.4375 v 0.32813 q -0.65625,0.89062 -1.25,0.89062 -0.28125,0 -0.45312,-0.20312 -0.17188,-0.20313 -0.17188,-0.6875 z m 0,-0.375 v -2.04688 q -0.89062,0.35938 -1.14062,0.5 -0.46875,0.26563 -0.67188,0.54688 -0.20312,0.28125 -0.20312,0.60937 0,0.42188 0.25,0.70313 0.26562,0.28125 0.59375,0.28125 0.4375,0 1.17187,-0.59375 z m 1.98242,-4.21875 h 2.25 v 0.21875 q -0.3125,0.0312 -0.40625,0.125 -0.0937,0.0781 -0.0937,0.25 0,0.17187 0.0937,0.4375 l 1.15625,3.07812 1.14063,-2.51562 -0.29688,-0.78125 q -0.14062,-0.35938 -0.375,-0.48438 -0.125,-0.0937 -0.46875,-0.10937 v -0.21875 h 2.54688 v 0.21875 q -0.42188,0.0156 -0.59375,0.15625 -0.125,0.0937 -0.125,0.29687 0,0.125 0.0469,0.25 l 1.21875,3.07813 1.14063,-2.96875 q 0.10937,-0.32813 0.10937,-0.51563 0,-0.10937 -0.10937,-0.1875 -0.10938,-0.0937 -0.45313,-0.10937 v -0.21875 h 1.70313 v 0.21875 q -0.51563,0.0781 -0.75,0.70312 l -1.79688,4.625 h -0.25 l -1.32812,-3.4375 -1.57813,3.4375 h -0.20312 l -1.73438,-4.51562 q -0.17187,-0.4375 -0.34375,-0.57813 -0.15625,-0.15625 -0.5,-0.23437 z m 9.86914,2.03125 q -0.0156,1.1875 0.57813,1.875 0.57812,0.67187 1.375,0.67187 0.53125,0 0.92187,-0.28125 0.39063,-0.29687 0.65625,-1 l 0.17188,0.125 q -0.125,0.79688 -0.71875,1.46875 -0.57813,0.65625 -1.46875,0.65625 -0.96875,0 -1.65625,-0.75 -0.6875,-0.76562 -0.6875,-2.03125 0,-1.375 0.70312,-2.14062 0.70313,-0.78125 1.76563,-0.78125 0.90625,0 1.48437,0.59375 0.57813,0.59375 0.57813,1.59375 z m 0,-0.34375 h 2.48438 q -0.0312,-0.51563 -0.125,-0.71875 -0.14063,-0.32813 -0.4375,-0.51563 -0.29688,-0.1875 -0.60938,-0.1875 -0.48437,0 -0.875,0.375 -0.375,0.375 -0.4375,1.04688 z m 5.99805,-1.84375 v 1.21875 q 0.67188,-1.21875 1.375,-1.21875 0.32813,0 0.53125,0.20312 0.21875,0.1875 0.21875,0.45313 0,0.23437 -0.15625,0.39062 -0.15625,0.15625 -0.35937,0.15625 -0.20313,0 -0.46875,-0.20312 -0.25,-0.20313 -0.375,-0.20313 -0.10938,0 -0.23438,0.10938 -0.25,0.25 -0.53125,0.79687 v 2.57813 q 0,0.4375 0.10938,0.67187 0.0781,0.15625 0.26562,0.26563 0.1875,0.0937 0.5625,0.0937 v 0.21875 h -2.75 v -0.21875 q 0.40625,0 0.60938,-0.125 0.14062,-0.0937 0.20312,-0.29688 0.0312,-0.0937 0.0312,-0.5625 v -2.07812 q 0,-0.9375 -0.0469,-1.10938 -0.0312,-0.1875 -0.14063,-0.26562 -0.0937,-0.0937 -0.25,-0.0937 -0.1875,0 -0.40625,0.0937 l -0.0625,-0.21875 1.625,-0.65625 z m 5.88672,0 v 1.82812 h -0.1875 q -0.23438,-0.85937 -0.57813,-1.17187 -0.34375,-0.3125 -0.89062,-0.3125 -0.40625,0 -0.65625,0.21875 -0.25,0.21875 -0.25,0.48437 0,0.32813 0.1875,0.5625 0.17187,0.23438 0.73437,0.51563 l 0.85938,0.40625 q 1.1875,0.57812 1.1875,1.53125 0,0.73437 -0.5625,1.1875 -0.54688,0.45312 -1.23438,0.45312 -0.48437,0 -1.125,-0.1875 -0.1875,-0.0625 -0.3125,-0.0625 -0.14062,0 -0.21875,0.15625 h -0.1875 v -1.90625 h 0.1875 q 0.17188,0.8125 0.625,1.23438 0.46875,0.40625 1.04688,0.40625 0.40625,0 0.65625,-0.23438 0.25,-0.23437 0.25,-0.5625 0,-0.40625 -0.28125,-0.6875 -0.28125,-0.28125 -1.14063,-0.70312 -0.84375,-0.42188 -1.10937,-0.75 -0.25,-0.34375 -0.25,-0.84375 0,-0.67188 0.45312,-1.10938 0.45313,-0.45312 1.17188,-0.45312 0.3125,0 0.76562,0.14062 0.29688,0.0937 0.39063,0.0937 0.0937,0 0.14062,-0.0469 0.0625,-0.0469 0.14063,-0.1875 z"
     fill-rule="nonzero"
     id="path73" />
  <path
     fill="#c5efb4"
     d="m 256.20603,298.56823 h 77.38583 v 37.66928 h -77.38583 z"
     fill-rule="evenodd"
     id="path75" />
  <path
     stroke="#000000"
     stroke-width="1"
     stroke-linejoin="round"
     stroke-linecap="butt"
     d="m 256.20603,298.56823 h 77.38583 v 37.66928 h -77.38583 z"
     fill-rule="evenodd"
     id="path77" />
  <path
     fill="#000000"
     d="m 277.90775,306.79788 v 2.75 H 277.689 q -0.0937,-0.79688 -0.375,-1.26563 -0.26563,-0.46875 -0.78125,-0.73437 -0.5,-0.28125 -1.03125,-0.28125 -0.60938,0 -1.01563,0.375 -0.39062,0.35937 -0.39062,0.84375 0,0.35937 0.25,0.65625 0.35937,0.4375 1.71875,1.17187 1.125,0.59375 1.53125,0.92188 0.40625,0.3125 0.625,0.75 0.21875,0.4375 0.21875,0.90625 0,0.90625 -0.70313,1.5625 -0.70312,0.65625 -1.79687,0.65625 -0.34375,0 -0.65625,-0.0625 -0.17188,-0.0312 -0.75,-0.20313 -0.57813,-0.1875 -0.71875,-0.1875 -0.15625,0 -0.25,0.0937 -0.0781,0.0781 -0.10938,0.35938 h -0.21875 v -2.73438 h 0.21875 q 0.15625,0.85938 0.40625,1.28125 0.26563,0.42188 0.78125,0.70313 0.53125,0.28125 1.17188,0.28125 0.73437,0 1.15625,-0.375 0.42187,-0.39063 0.42187,-0.92188 0,-0.29687 -0.15625,-0.59375 -0.15625,-0.29687 -0.5,-0.54687 -0.23437,-0.1875 -1.25,-0.75 -1.01562,-0.57813 -1.45312,-0.90625 -0.42188,-0.34375 -0.65625,-0.75 -0.21875,-0.42188 -0.21875,-0.90625 0,-0.85938 0.65625,-1.46875 0.65625,-0.625 1.67187,-0.625 0.625,0 1.34375,0.3125 0.32813,0.14062 0.45313,0.14062 0.15625,0 0.25,-0.0937 0.10937,-0.0937 0.15625,-0.35937 z m 2.45508,4.78125 q -0.0156,1.1875 0.57812,1.875 0.57813,0.67187 1.375,0.67187 0.53125,0 0.92188,-0.28125 0.39062,-0.29687 0.65625,-1 l 0.17187,0.125 q -0.125,0.79688 -0.71875,1.46875 -0.57812,0.65625 -1.46875,0.65625 -0.96875,0 -1.65625,-0.75 -0.6875,-0.76562 -0.6875,-2.03125 0,-1.375 0.70313,-2.14062 0.70312,-0.78125 1.76562,-0.78125 0.90625,0 1.48438,0.59375 0.57812,0.59375 0.57812,1.59375 z m 0,-0.34375 h 2.48437 q -0.0312,-0.51563 -0.125,-0.71875 -0.14062,-0.32813 -0.4375,-0.51563 -0.29687,-0.1875 -0.60937,-0.1875 -0.48438,0 -0.875,0.375 -0.375,0.375 -0.4375,1.04688 z m 7.4668,2.90625 q -0.82813,0.64062 -1.04688,0.75 -0.3125,0.14062 -0.67187,0.14062 -0.54688,0 -0.92188,-0.375 -0.35937,-0.39062 -0.35937,-1 0,-0.40625 0.1875,-0.6875 0.23437,-0.39062 0.82812,-0.73437 0.59375,-0.35938 1.98438,-0.875 v -0.20313 q 0,-0.8125 -0.26563,-1.10937 -0.25,-0.29688 -0.73437,-0.29688 -0.375,0 -0.59375,0.20313 -0.21875,0.20312 -0.21875,0.45312 l 0.0156,0.34375 q 0,0.26563 -0.14062,0.42188 -0.14063,0.14062 -0.35938,0.14062 -0.21875,0 -0.35937,-0.15625 -0.125,-0.15625 -0.125,-0.40625 0,-0.51562 0.51562,-0.9375 0.51563,-0.42187 1.4375,-0.42187 0.71875,0 1.17188,0.25 0.34375,0.17187 0.51562,0.5625 0.10938,0.25 0.10938,1.03125 v 1.82812 q 0,0.76563 0.0156,0.9375 0.0312,0.17188 0.0937,0.23438 0.0781,0.0469 0.17188,0.0469 0.0937,0 0.15625,-0.0312 0.125,-0.0781 0.46875,-0.4375 v 0.32813 q -0.65625,0.89062 -1.25,0.89062 -0.28125,0 -0.45313,-0.20312 -0.17187,-0.20313 -0.17187,-0.6875 z m 0,-0.375 v -2.04688 q -0.89063,0.35938 -1.14063,0.5 -0.46875,0.26563 -0.67187,0.54688 -0.20313,0.28125 -0.20313,0.60937 0,0.42188 0.25,0.70313 0.26563,0.28125 0.59375,0.28125 0.4375,0 1.17188,-0.59375 z m 3.85742,-4.375 v 1.21875 q 0.67187,-1.21875 1.375,-1.21875 0.32812,0 0.53125,0.20312 0.21875,0.1875 0.21875,0.45313 0,0.23437 -0.15625,0.39062 -0.15625,0.15625 -0.35938,0.15625 -0.20312,0 -0.46875,-0.20312 -0.25,-0.20313 -0.375,-0.20313 -0.10937,0 -0.23437,0.10938 -0.25,0.25 -0.53125,0.79687 v 2.57813 q 0,0.4375 0.10937,0.67187 0.0781,0.15625 0.26563,0.26563 0.1875,0.0937 0.5625,0.0937 v 0.21875 h -2.75 v -0.21875 q 0.40625,0 0.60937,-0.125 0.14063,-0.0937 0.20313,-0.29688 0.0312,-0.0937 0.0312,-0.5625 v -2.07812 q 0,-0.9375 -0.0469,-1.10938 -0.0312,-0.1875 -0.14062,-0.26562 -0.0937,-0.0937 -0.25,-0.0937 -0.1875,0 -0.40625,0.0937 l -0.0625,-0.21875 1.625,-0.65625 z m 6.98047,3.48437 q -0.21875,1.0625 -0.85938,1.64063 -0.625,0.57812 -1.39062,0.57812 -0.92188,0 -1.60938,-0.76562 -0.67187,-0.78125 -0.67187,-2.07813 0,-1.26562 0.75,-2.0625 0.76562,-0.79687 1.8125,-0.79687 0.79687,0 1.29687,0.42187 0.51563,0.42188 0.51563,0.875 0,0.21875 -0.14063,0.35938 -0.14062,0.14062 -0.40625,0.14062 -0.34375,0 -0.51562,-0.23437 -0.10938,-0.10938 -0.14063,-0.45313 -0.0312,-0.35937 -0.23437,-0.53125 -0.20313,-0.1875 -0.5625,-0.1875 -0.59375,0 -0.95313,0.4375 -0.46875,0.57813 -0.46875,1.51563 0,0.96875 0.46875,1.70312 0.46875,0.73438 1.28125,0.73438 0.57813,0 1.03125,-0.39063 0.3125,-0.26562 0.625,-0.98437 z m 2.34179,-6.28125 v 3.92188 q 0.65625,-0.71875 1.03125,-0.92188 0.375,-0.20312 0.76563,-0.20312 0.45312,0 0.78125,0.26562 0.32812,0.25 0.48437,0.78125 0.10938,0.375 0.10938,1.375 v 1.89063 q 0,0.51562 0.0781,0.70312 0.0625,0.14063 0.20313,0.21875 0.14062,0.0781 0.51562,0.0781 v 0.21875 h -2.64062 v -0.21875 h 0.125 q 0.375,0 0.51562,-0.10938 0.15625,-0.10937 0.21875,-0.32812 0.0156,-0.0937 0.0156,-0.5625 v -1.89063 q 0,-0.875 -0.0937,-1.15625 -0.0937,-0.28125 -0.29688,-0.40625 -0.1875,-0.14062 -0.46875,-0.14062 -0.29687,0 -0.60937,0.15625 -0.29688,0.14062 -0.73438,0.60937 v 2.82813 q 0,0.5625 0.0625,0.70312 0.0625,0.125 0.21875,0.21875 0.17188,0.0781 0.57813,0.0781 v 0.21875 h -2.65625 v -0.21875 q 0.35937,0 0.5625,-0.10938 0.125,-0.0469 0.1875,-0.20312 0.0781,-0.17188 0.0781,-0.6875 v -4.85938 q 0,-0.90625 -0.0469,-1.10937 -0.0469,-0.21875 -0.14063,-0.29688 -0.0937,-0.0781 -0.23437,-0.0781 -0.125,0 -0.40625,0.0937 l -0.0781,-0.20313 1.60938,-0.65625 z m 8.78125,0 q 0.25,0 0.42188,0.17188 0.17187,0.17187 0.17187,0.42187 0,0.23438 -0.17187,0.42188 -0.17188,0.17187 -0.42188,0.17187 -0.23437,0 -0.42187,-0.17187 -0.17188,-0.1875 -0.17188,-0.42188 0,-0.25 0.17188,-0.42187 0.17187,-0.17188 0.42187,-0.17188 z m 0.5,2.79688 v 4.3125 q 0,0.51562 0.0625,0.6875 0.0781,0.15625 0.21875,0.23437 0.14063,0.0781 0.53125,0.0781 v 0.21875 h -2.60937 v -0.21875 q 0.39062,0 0.51562,-0.0625 0.14063,-0.0781 0.21875,-0.25 0.0781,-0.1875 0.0781,-0.6875 v -2.0625 q 0,-0.875 -0.0469,-1.125 -0.0469,-0.1875 -0.14062,-0.26563 -0.0781,-0.0781 -0.23438,-0.0781 -0.15625,0 -0.39062,0.0937 l -0.0781,-0.21875 1.60938,-0.65625 z m 3.03711,1.14062 q 0.95313,-1.14062 1.79688,-1.14062 0.4375,0 0.75,0.21875 0.32812,0.21875 0.51562,0.73437 0.125,0.34375 0.125,1.07813 v 2.28125 q 0,0.51562 0.0781,0.70312 0.0781,0.14063 0.21875,0.21875 0.14062,0.0781 0.53125,0.0781 v 0.21875 h -2.65625 v -0.21875 h 0.10937 q 0.375,0 0.51563,-0.10938 0.15625,-0.10937 0.21875,-0.32812 0.0156,-0.0937 0.0156,-0.5625 v -2.1875 q 0,-0.73438 -0.1875,-1.0625 -0.1875,-0.34375 -0.64062,-0.34375 -0.70313,0 -1.39063,0.76562 v 2.82813 q 0,0.54687 0.0625,0.67187 0.0937,0.17188 0.23438,0.25 0.14062,0.0781 0.57812,0.0781 v 0.21875 h -2.65625 v -0.21875 h 0.125 q 0.40625,0 0.54688,-0.20313 0.14062,-0.20312 0.14062,-0.79687 v -1.98438 q 0,-0.96875 -0.0469,-1.17187 -0.0312,-0.21875 -0.125,-0.29688 -0.0937,-0.0781 -0.25,-0.0781 -0.15625,0 -0.39063,0.0937 l -0.0781,-0.21875 1.60937,-0.65625 h 0.25 z"
     fill-rule="nonzero"
     id="path79" />
  <path
     fill="#000000"
     d="m 272.6724,321.79788 v 1.75 h 1.25 v 0.42187 h -1.25 v 3.46875 q 0,0.53125 0.14063,0.71875 0.15625,0.17188 0.39062,0.17188 0.1875,0 0.375,-0.10938 0.1875,-0.125 0.28125,-0.35937 h 0.23438 q -0.21875,0.5625 -0.59375,0.85937 -0.375,0.29688 -0.76563,0.29688 -0.26562,0 -0.53125,-0.15625 -0.25,-0.15625 -0.375,-0.42188 -0.125,-0.28125 -0.125,-0.85937 v -3.60938 h -0.84375 v -0.20312 q 0.3125,-0.125 0.64063,-0.42188 0.34375,-0.3125 0.60937,-0.73437 0.14063,-0.23438 0.375,-0.8125 z m 3.34961,-1.20313 v 3.92188 q 0.65625,-0.71875 1.03125,-0.92188 0.375,-0.20312 0.76562,-0.20312 0.45313,0 0.78125,0.26562 0.32813,0.25 0.48438,0.78125 0.10937,0.375 0.10937,1.375 v 1.89063 q 0,0.51562 0.0781,0.70312 0.0625,0.14063 0.20312,0.21875 0.14063,0.0781 0.51563,0.0781 v 0.21875 h -2.64063 v -0.21875 h 0.125 q 0.375,0 0.51563,-0.10938 0.15625,-0.10937 0.21875,-0.32812 0.0156,-0.0937 0.0156,-0.5625 v -1.89063 q 0,-0.875 -0.0937,-1.15625 -0.0937,-0.28125 -0.29687,-0.40625 -0.1875,-0.14062 -0.46875,-0.14062 -0.29688,0 -0.60938,0.15625 -0.29687,0.14062 -0.73437,0.60937 v 2.82813 q 0,0.5625 0.0625,0.70312 0.0625,0.125 0.21875,0.21875 0.17187,0.0781 0.57812,0.0781 v 0.21875 h -2.65625 v -0.21875 q 0.35938,0 0.5625,-0.10938 0.125,-0.0469 0.1875,-0.20312 0.0781,-0.17188 0.0781,-0.6875 v -4.85938 q 0,-0.90625 -0.0469,-1.10937 -0.0469,-0.21875 -0.14062,-0.29688 -0.0937,-0.0781 -0.23438,-0.0781 -0.125,0 -0.40625,0.0937 l -0.0781,-0.20313 1.60937,-0.65625 z m 5.32812,4.98438 q -0.0156,1.1875 0.57813,1.875 0.57812,0.67187 1.375,0.67187 0.53125,0 0.92187,-0.28125 0.39063,-0.29687 0.65625,-1 l 0.17188,0.125 q -0.125,0.79688 -0.71875,1.46875 -0.57813,0.65625 -1.46875,0.65625 -0.96875,0 -1.65625,-0.75 -0.6875,-0.76562 -0.6875,-2.03125 0,-1.375 0.70312,-2.14062 0.70313,-0.78125 1.76563,-0.78125 0.90625,0 1.48437,0.59375 0.57813,0.59375 0.57813,1.59375 z m 0,-0.34375 h 2.48438 q -0.0312,-0.51563 -0.125,-0.71875 -0.14063,-0.32813 -0.4375,-0.51563 -0.29688,-0.1875 -0.60938,-0.1875 -0.48437,0 -0.875,0.375 -0.375,0.375 -0.4375,1.04688 z m 14.26368,-4.4375 0.1875,2.70312 h -0.1875 q -0.35938,-1.21875 -1.03125,-1.75 -0.67188,-0.53125 -1.60938,-0.53125 -0.79687,0 -1.4375,0.40625 -0.64062,0.39063 -1.01562,1.28125 -0.35938,0.875 -0.35938,2.17188 0,1.07812 0.34375,1.875 0.35938,0.79687 1.04688,1.21875 0.6875,0.42187 1.57812,0.42187 0.78125,0 1.375,-0.32812 0.59375,-0.34375 1.29688,-1.32813 l 0.1875,0.125 q -0.60938,1.0625 -1.40625,1.5625 -0.79688,0.48438 -1.89063,0.48438 -1.96875,0 -3.04687,-1.46875 -0.8125,-1.09375 -0.8125,-2.5625 0,-1.20313 0.53125,-2.1875 0.53125,-1 1.46875,-1.54688 0.9375,-0.54687 2.04687,-0.54687 0.85938,0 1.6875,0.42187 0.25,0.125 0.35938,0.125 0.15625,0 0.26562,-0.10937 0.15625,-0.15625 0.21875,-0.4375 z m 3.0039,-0.20313 v 7.10938 q 0,0.51562 0.0781,0.6875 0.0781,0.15625 0.21875,0.23437 0.15625,0.0781 0.57812,0.0781 v 0.21875 h -2.64062 v -0.21875 q 0.375,0 0.5,-0.0625 0.14062,-0.0781 0.21875,-0.25 0.0781,-0.1875 0.0781,-0.6875 v -4.875 q 0,-0.90625 -0.0469,-1.10938 -0.0312,-0.20312 -0.125,-0.28125 -0.0937,-0.0781 -0.23438,-0.0781 -0.15625,0 -0.39062,0.0937 l -0.0937,-0.20313 1.59375,-0.65625 z m 4.11524,2.79688 q 1.21875,0 1.95312,0.9375 0.625,0.78125 0.625,1.8125 0,0.71875 -0.34375,1.45312 -0.34375,0.73438 -0.95312,1.125 -0.59375,0.375 -1.34375,0.375 -1.21875,0 -1.92188,-0.96875 -0.60937,-0.82812 -0.60937,-1.82812 0,-0.75 0.35937,-1.46875 0.375,-0.73438 0.96875,-1.07813 0.59375,-0.35937 1.26563,-0.35937 z m -0.1875,0.39062 q -0.29688,0 -0.625,0.1875 -0.3125,0.17188 -0.5,0.64063 -0.1875,0.46875 -0.1875,1.1875 0,1.17187 0.45312,2.03125 0.46875,0.84375 1.23438,0.84375 0.5625,0 0.9375,-0.46875 0.375,-0.46875 0.375,-1.60938 0,-1.4375 -0.625,-2.25 -0.40625,-0.5625 -1.0625,-0.5625 z m 7.03125,-0.39062 v 1.82812 h -0.1875 q -0.23438,-0.85937 -0.57813,-1.17187 -0.34375,-0.3125 -0.89062,-0.3125 -0.40625,0 -0.65625,0.21875 -0.25,0.21875 -0.25,0.48437 0,0.32813 0.1875,0.5625 0.17187,0.23438 0.73437,0.51563 l 0.85938,0.40625 q 1.1875,0.57812 1.1875,1.53125 0,0.73437 -0.5625,1.1875 -0.54688,0.45312 -1.23438,0.45312 -0.48437,0 -1.125,-0.1875 -0.1875,-0.0625 -0.3125,-0.0625 -0.14062,0 -0.21875,0.15625 h -0.1875 v -1.90625 h 0.1875 q 0.17188,0.8125 0.625,1.23438 0.46875,0.40625 1.04688,0.40625 0.40625,0 0.65625,-0.23438 0.25,-0.23437 0.25,-0.5625 0,-0.40625 -0.28125,-0.6875 -0.28125,-0.28125 -1.14063,-0.70312 -0.84375,-0.42188 -1.10937,-0.75 -0.25,-0.34375 -0.25,-0.84375 0,-0.67188 0.45312,-1.10938 0.45313,-0.45312 1.17188,-0.45312 0.3125,0 0.76562,0.14062 0.29688,0.0937 0.39063,0.0937 0.0937,0 0.14062,-0.0469 0.0625,-0.0469 0.14063,-0.1875 z m 2.10742,2.1875 q -0.0156,1.1875 0.57812,1.875 0.57813,0.67187 1.375,0.67187 0.53125,0 0.92188,-0.28125 0.39062,-0.29687 0.65625,-1 l 0.17187,0.125 q -0.125,0.79688 -0.71875,1.46875 -0.57812,0.65625 -1.46875,0.65625 -0.96875,0 -1.65625,-0.75 -0.6875,-0.76562 -0.6875,-2.03125 0,-1.375 0.70313,-2.14062 0.70312,-0.78125 1.76562,-0.78125 0.90625,0 1.48438,0.59375 0.57812,0.59375 0.57812,1.59375 z m 0,-0.34375 h 2.48437 q -0.0312,-0.51563 -0.125,-0.71875 -0.14062,-0.32813 -0.4375,-0.51563 -0.29687,-0.1875 -0.60937,-0.1875 -0.48438,0 -0.875,0.375 -0.375,0.375 -0.4375,1.04688 z m 5.98242,-3.4375 v 1.75 h 1.25 v 0.42187 h -1.25 v 3.46875 q 0,0.53125 0.14063,0.71875 0.15625,0.17188 0.39062,0.17188 0.1875,0 0.375,-0.10938 0.1875,-0.125 0.28125,-0.35937 h 0.23438 q -0.21875,0.5625 -0.59375,0.85937 -0.375,0.29688 -0.76563,0.29688 -0.26562,0 -0.53125,-0.15625 -0.25,-0.15625 -0.375,-0.42188 -0.125,-0.28125 -0.125,-0.85937 v -3.60938 h -0.84375 v -0.20312 q 0.3125,-0.125 0.64063,-0.42188 0.34375,-0.3125 0.60937,-0.73437 0.14063,-0.23438 0.375,-0.8125 z"
     fill-rule="nonzero"
     id="path81" />
  <path
     fill="#c5efb4"
     d="m 375.66013,298.56823 h 77.3858 v 37.66928 h -77.3858 z"
     fill-rule="evenodd"
     id="path83" />
  <path
     stroke="#000000"
     stroke-width="1"
     stroke-linejoin="round"
     stroke-linecap="butt"
     d="m 375.66013,298.56823 h 77.3858 v 37.66928 h -77.3858 z"
     fill-rule="evenodd"
     id="path85" />
  <path
     fill="#000000"
     d="m 394.25144,306.79788 q 1.54688,0 2.67188,1.17187 1.14062,1.17188 1.14062,2.9375 0,1.8125 -1.14062,3.01563 -1.14063,1.1875 -2.76563,1.1875 -1.64062,0 -2.76562,-1.17188 -1.10938,-1.17187 -1.10938,-3.01562 0,-1.89063 1.29688,-3.09375 1.10937,-1.03125 2.67187,-1.03125 z m -0.10937,0.42187 q -1.0625,0 -1.71875,0.79688 -0.79688,0.98437 -0.79688,2.875 0,1.95312 0.82813,3 0.64062,0.79687 1.6875,0.79687 1.125,0 1.84375,-0.875 0.73437,-0.875 0.73437,-2.75 0,-2.04687 -0.79687,-3.04687 -0.64063,-0.79688 -1.78125,-0.79688 z m 6.32226,3.3125 q 0.95313,-1.14062 1.79688,-1.14062 0.4375,0 0.75,0.21875 0.32812,0.21875 0.51562,0.73437 0.125,0.34375 0.125,1.07813 v 2.28125 q 0,0.51562 0.0781,0.70312 0.0781,0.14063 0.21875,0.21875 0.14062,0.0781 0.53125,0.0781 v 0.21875 h -2.65625 v -0.21875 h 0.10937 q 0.375,0 0.51563,-0.10938 0.15625,-0.10937 0.21875,-0.32812 0.0156,-0.0937 0.0156,-0.5625 v -2.1875 q 0,-0.73438 -0.1875,-1.0625 -0.1875,-0.34375 -0.64062,-0.34375 -0.70313,0 -1.39063,0.76562 v 2.82813 q 0,0.54687 0.0625,0.67187 0.0937,0.17188 0.23438,0.25 0.14062,0.0781 0.57812,0.0781 v 0.21875 h -2.65625 v -0.21875 h 0.125 q 0.40625,0 0.54688,-0.20313 0.14062,-0.20312 0.14062,-0.79687 v -1.98438 q 0,-0.96875 -0.0469,-1.17187 -0.0312,-0.21875 -0.125,-0.29688 -0.0937,-0.0781 -0.25,-0.0781 -0.15625,0 -0.39063,0.0937 l -0.0781,-0.21875 1.60937,-0.65625 h 0.25 z m 5.34375,1.04688 q -0.0156,1.1875 0.57813,1.875 0.57812,0.67187 1.375,0.67187 0.53125,0 0.92187,-0.28125 0.39063,-0.29687 0.65625,-1 l 0.17188,0.125 q -0.125,0.79688 -0.71875,1.46875 -0.57813,0.65625 -1.46875,0.65625 -0.96875,0 -1.65625,-0.75 -0.6875,-0.76562 -0.6875,-2.03125 0,-1.375 0.70312,-2.14062 0.70313,-0.78125 1.76563,-0.78125 0.90625,0 1.48437,0.59375 0.57813,0.59375 0.57813,1.59375 z m 0,-0.34375 h 2.48438 q -0.0312,-0.51563 -0.125,-0.71875 -0.14063,-0.32813 -0.4375,-0.51563 -0.29688,-0.1875 -0.60938,-0.1875 -0.48437,0 -0.875,0.375 -0.375,0.375 -0.4375,1.04688 z m 9.51367,-0.57813 h 3.6875 v -2.26562 q 0,-0.60938 -0.0781,-0.8125 -0.0469,-0.14063 -0.23438,-0.25 -0.26562,-0.14063 -0.54687,-0.14063 h -0.28125 v -0.21875 h 3.40625 v 0.21875 h -0.28125 q -0.28125,0 -0.53125,0.14063 -0.1875,0.0937 -0.26563,0.28125 -0.0625,0.1875 -0.0625,0.78125 v 5.125 q 0,0.60937 0.0781,0.79687 0.0625,0.14063 0.23437,0.25 0.26563,0.14063 0.54688,0.14063 h 0.28125 v 0.21875 h -3.40625 v -0.21875 h 0.28125 q 0.5,0 0.71875,-0.28125 0.14062,-0.1875 0.14062,-0.90625 v -2.42188 h -3.6875 v 2.42188 q 0,0.60937 0.0781,0.79687 0.0625,0.14063 0.25,0.25 0.25,0.14063 0.53125,0.14063 h 0.28125 v 0.21875 h -3.40625 v -0.21875 h 0.28125 q 0.5,0 0.71875,-0.28125 0.14062,-0.1875 0.14062,-0.90625 v -5.125 q 0,-0.60938 -0.0781,-0.8125 -0.0625,-0.14063 -0.23438,-0.25 -0.26562,-0.14063 -0.54687,-0.14063 h -0.28125 v -0.21875 h 3.40625 v 0.21875 h -0.28125 q -0.28125,0 -0.53125,0.14063 -0.1875,0.0937 -0.26563,0.28125 -0.0625,0.1875 -0.0625,0.78125 z m 9.61914,3.48438 q -0.82812,0.64062 -1.04687,0.75 -0.3125,0.14062 -0.67188,0.14062 -0.54687,0 -0.92187,-0.375 -0.35938,-0.39062 -0.35938,-1 0,-0.40625 0.1875,-0.6875 0.23438,-0.39062 0.82813,-0.73437 0.59375,-0.35938 1.98437,-0.875 v -0.20313 q 0,-0.8125 -0.26562,-1.10937 -0.25,-0.29688 -0.73438,-0.29688 -0.375,0 -0.59375,0.20313 -0.21875,0.20312 -0.21875,0.45312 l 0.0156,0.34375 q 0,0.26563 -0.14063,0.42188 -0.14062,0.14062 -0.35937,0.14062 -0.21875,0 -0.35938,-0.15625 -0.125,-0.15625 -0.125,-0.40625 0,-0.51562 0.51563,-0.9375 0.51562,-0.42187 1.4375,-0.42187 0.71875,0 1.17187,0.25 0.34375,0.17187 0.51563,0.5625 0.10937,0.25 0.10937,1.03125 v 1.82812 q 0,0.76563 0.0156,0.9375 0.0312,0.17188 0.0937,0.23438 0.0781,0.0469 0.17187,0.0469 0.0937,0 0.15625,-0.0312 0.125,-0.0781 0.46875,-0.4375 v 0.32813 q -0.65625,0.89062 -1.25,0.89062 -0.28125,0 -0.45312,-0.20312 -0.17188,-0.20313 -0.17188,-0.6875 z m 0,-0.375 v -2.04688 q -0.89062,0.35938 -1.14062,0.5 -0.46875,0.26563 -0.67188,0.54688 -0.20312,0.28125 -0.20312,0.60937 0,0.42188 0.25,0.70313 0.26562,0.28125 0.59375,0.28125 0.4375,0 1.17187,-0.59375 z m 3.8418,-3.23438 q 0.95313,-1.14062 1.79688,-1.14062 0.4375,0 0.75,0.21875 0.32812,0.21875 0.51562,0.73437 0.125,0.34375 0.125,1.07813 v 2.28125 q 0,0.51562 0.0781,0.70312 0.0781,0.14063 0.21875,0.21875 0.14062,0.0781 0.53125,0.0781 v 0.21875 h -2.65625 v -0.21875 h 0.10937 q 0.375,0 0.51563,-0.10938 0.15625,-0.10937 0.21875,-0.32812 0.0156,-0.0937 0.0156,-0.5625 v -2.1875 q 0,-0.73438 -0.1875,-1.0625 -0.1875,-0.34375 -0.64062,-0.34375 -0.70313,0 -1.39063,0.76562 v 2.82813 q 0,0.54687 0.0625,0.67187 0.0937,0.17188 0.23438,0.25 0.14062,0.0781 0.57812,0.0781 v 0.21875 h -2.65625 v -0.21875 h 0.125 q 0.40625,0 0.54688,-0.20313 0.14062,-0.20312 0.14062,-0.79687 v -1.98438 q 0,-0.96875 -0.0469,-1.17187 -0.0312,-0.21875 -0.125,-0.29688 -0.0937,-0.0781 -0.25,-0.0781 -0.15625,0 -0.39063,0.0937 l -0.0781,-0.21875 1.60937,-0.65625 h 0.25 z m 8.23438,3.78125 q -0.39063,0.42188 -0.76563,0.60938 -0.375,0.17187 -0.8125,0.17187 -0.875,0 -1.53125,-0.73437 -0.65625,-0.75 -0.65625,-1.90625 0,-1.14063 0.71875,-2.09375 0.73438,-0.96875 1.875,-0.96875 0.70313,0 1.17188,0.45312 v -1 q 0,-0.90625 -0.0469,-1.10937 -0.0469,-0.21875 -0.14062,-0.29688 -0.0937,-0.0781 -0.23438,-0.0781 -0.15625,0 -0.40625,0.0937 l -0.0781,-0.20313 1.60937,-0.65625 h 0.26563 v 6.20313 q 0,0.9375 0.0312,1.15625 0.0469,0.20312 0.14062,0.28125 0.10938,0.0781 0.23438,0.0781 0.15625,0 0.42187,-0.0937 l 0.0625,0.20313 -1.59375,0.67187 h -0.26562 z m 0,-0.40625 v -2.76562 q -0.0469,-0.39063 -0.21875,-0.71875 -0.17188,-0.32813 -0.46875,-0.5 -0.28125,-0.17188 -0.5625,-0.17188 -0.51563,0 -0.92188,0.46875 -0.53125,0.60938 -0.53125,1.78125 0,1.1875 0.51563,1.8125 0.51562,0.625 1.15625,0.625 0.53125,0 1.03125,-0.53125 z"
     fill-rule="nonzero"
     id="path87" />
  <path
     fill="#000000"
     d="m 407.38327,320.79788 0.21875,2.5 h -0.21875 q -0.29688,-0.9375 -0.79688,-1.40625 -0.70312,-0.6875 -1.82812,-0.6875 -1.51563,0 -2.29688,1.20312 -0.67187,1.01563 -0.67187,2.40625 0,1.14063 0.4375,2.07813 0.45312,0.9375 1.15625,1.375 0.71875,0.4375 1.46875,0.4375 0.4375,0 0.84375,-0.10938 0.40625,-0.10937 0.79687,-0.32812 v -2.29688 q 0,-0.59375 -0.0937,-0.78125 -0.0937,-0.1875 -0.28125,-0.28125 -0.1875,-0.0937 -0.67187,-0.0937 v -0.23437 h 3.07812 v 0.23437 h -0.15625 q -0.45312,0 -0.625,0.29688 -0.10937,0.21875 -0.10937,0.85937 v 2.4375 q -0.67188,0.35938 -1.32813,0.53125 -0.65625,0.17188 -1.46875,0.17188 -2.29687,0 -3.5,-1.48438 -0.89062,-1.10937 -0.89062,-2.54687 0,-1.0625 0.5,-2.01563 0.60937,-1.14062 1.64062,-1.76562 0.875,-0.5 2.0625,-0.5 0.4375,0 0.78125,0.0781 0.35938,0.0625 1.01563,0.29688 0.32812,0.125 0.4375,0.125 0.10937,0 0.1875,-0.0937 0.0781,-0.10938 0.10937,-0.40625 z m 3.25977,2.59375 v 1.21875 q 0.67187,-1.21875 1.375,-1.21875 0.32812,0 0.53125,0.20312 0.21875,0.1875 0.21875,0.45313 0,0.23437 -0.15625,0.39062 -0.15625,0.15625 -0.35938,0.15625 -0.20312,0 -0.46875,-0.20312 -0.25,-0.20313 -0.375,-0.20313 -0.10937,0 -0.23437,0.10938 -0.25,0.25 -0.53125,0.79687 v 2.57813 q 0,0.4375 0.10937,0.67187 0.0781,0.15625 0.26563,0.26563 0.1875,0.0937 0.5625,0.0937 v 0.21875 h -2.75 v -0.21875 q 0.40625,0 0.60937,-0.125 0.14063,-0.0937 0.20313,-0.29688 0.0312,-0.0937 0.0312,-0.5625 v -2.07812 q 0,-0.9375 -0.0469,-1.10938 -0.0312,-0.1875 -0.14062,-0.26562 -0.0937,-0.0937 -0.25,-0.0937 -0.1875,0 -0.40625,0.0937 l -0.0625,-0.21875 1.625,-0.65625 z m 5.46484,4.75 q -0.82813,0.64062 -1.04688,0.75 -0.3125,0.14062 -0.67187,0.14062 -0.54688,0 -0.92188,-0.375 -0.35937,-0.39062 -0.35937,-1 0,-0.40625 0.1875,-0.6875 0.23437,-0.39062 0.82812,-0.73437 0.59375,-0.35938 1.98438,-0.875 v -0.20313 q 0,-0.8125 -0.26563,-1.10937 -0.25,-0.29688 -0.73437,-0.29688 -0.375,0 -0.59375,0.20313 -0.21875,0.20312 -0.21875,0.45312 l 0.0156,0.34375 q 0,0.26563 -0.14062,0.42188 -0.14063,0.14062 -0.35938,0.14062 -0.21875,0 -0.35937,-0.15625 -0.125,-0.15625 -0.125,-0.40625 0,-0.51562 0.51562,-0.9375 0.51563,-0.42187 1.4375,-0.42187 0.71875,0 1.17188,0.25 0.34375,0.17187 0.51562,0.5625 0.10938,0.25 0.10938,1.03125 v 1.82812 q 0,0.76563 0.0156,0.9375 0.0312,0.17188 0.0937,0.23438 0.0781,0.0469 0.17188,0.0469 0.0937,0 0.15625,-0.0312 0.125,-0.0781 0.46875,-0.4375 v 0.32813 q -0.65625,0.89062 -1.25,0.89062 -0.28125,0 -0.45313,-0.20312 -0.17187,-0.20313 -0.17187,-0.6875 z m 0,-0.375 v -2.04688 q -0.89063,0.35938 -1.14063,0.5 -0.46875,0.26563 -0.67187,0.54688 -0.20313,0.28125 -0.20313,0.60937 0,0.42188 0.25,0.70313 0.26563,0.28125 0.59375,0.28125 0.4375,0 1.17188,-0.59375 z m 5.74805,-4.375 v 1.82812 h -0.1875 q -0.23438,-0.85937 -0.57813,-1.17187 -0.34375,-0.3125 -0.89062,-0.3125 -0.40625,0 -0.65625,0.21875 -0.25,0.21875 -0.25,0.48437 0,0.32813 0.1875,0.5625 0.17187,0.23438 0.73437,0.51563 l 0.85938,0.40625 q 1.1875,0.57812 1.1875,1.53125 0,0.73437 -0.5625,1.1875 -0.54688,0.45312 -1.23438,0.45312 -0.48437,0 -1.125,-0.1875 -0.1875,-0.0625 -0.3125,-0.0625 -0.14062,0 -0.21875,0.15625 h -0.1875 v -1.90625 h 0.1875 q 0.17188,0.8125 0.625,1.23438 0.46875,0.40625 1.04688,0.40625 0.40625,0 0.65625,-0.23438 0.25,-0.23437 0.25,-0.5625 0,-0.40625 -0.28125,-0.6875 -0.28125,-0.28125 -1.14063,-0.70312 -0.84375,-0.42188 -1.10937,-0.75 -0.25,-0.34375 -0.25,-0.84375 0,-0.67188 0.45312,-1.10938 0.45313,-0.45312 1.17188,-0.45312 0.3125,0 0.76562,0.14062 0.29688,0.0937 0.39063,0.0937 0.0937,0 0.14062,-0.0469 0.0625,-0.0469 0.14063,-0.1875 z m 0.81054,0.70312 1.65625,-0.67187 h 0.21875 v 1.25 q 0.42188,-0.70313 0.84375,-0.98438 0.42188,-0.29687 0.875,-0.29687 0.8125,0 1.34375,0.64062 0.67188,0.76563 0.67188,2.01563 0,1.39062 -0.79688,2.29687 -0.65625,0.75 -1.65625,0.75 -0.4375,0 -0.75,-0.125 -0.23437,-0.0937 -0.53125,-0.35937 v 1.64062 q 0,0.54688 0.0625,0.6875 0.0781,0.15625 0.23438,0.23438 0.17187,0.0937 0.60937,0.0937 v 0.21875 h -2.8125 v -0.21875 h 0.15625 q 0.3125,0.0156 0.54688,-0.10938 0.10937,-0.0781 0.17187,-0.21875 0.0625,-0.14062 0.0625,-0.71875 v -5.07812 q 0,-0.53125 -0.0469,-0.67188 -0.0469,-0.14062 -0.15625,-0.20312 -0.0937,-0.0781 -0.26563,-0.0781 -0.14062,0 -0.35937,0.0937 z m 1.875,0.92188 v 2 q 0,0.65625 0.0625,0.85937 0.0781,0.34375 0.39063,0.60938 0.32812,0.25 0.8125,0.25 0.57812,0 0.95312,-0.45313 0.46875,-0.60937 0.46875,-1.6875 0,-1.23437 -0.53125,-1.89062 -0.375,-0.45313 -0.89062,-0.45313 -0.28125,0 -0.5625,0.14063 -0.21875,0.0937 -0.70313,0.625 z"
     fill-rule="nonzero"
     id="path89" />
  <path
     fill="#c5efb4"
     d="m 476.48947,298.56823 h 88.47247 v 37.66928 h -88.47247 z"
     fill-rule="evenodd"
     id="path91" />
  <path
     stroke="#000000"
     stroke-width="1"
     stroke-linejoin="round"
     stroke-linecap="butt"
     d="m 476.48947,298.56823 h 88.47247 v 37.66928 h -88.47247 z"
     fill-rule="evenodd"
     id="path93" />
  <path
     fill="#000000"
     d="m 500.25307,306.96976 0.0937,1.875 h -0.21875 q -0.0625,-0.5 -0.17187,-0.70313 -0.1875,-0.34375 -0.5,-0.5 -0.29688,-0.17187 -0.78125,-0.17187 h -1.125 v 6.07813 q 0,0.73437 0.15625,0.90625 0.23437,0.25 0.6875,0.25 h 0.28125 v 0.21875 h -3.375 v -0.21875 h 0.28125 q 0.5,0 0.71875,-0.29688 0.125,-0.1875 0.125,-0.85937 v -6.07813 h -0.95313 q -0.5625,0 -0.79687,0.0937 -0.29688,0.10938 -0.51563,0.42188 -0.21875,0.3125 -0.25,0.85937 h -0.23437 l 0.0937,-1.875 z m -0.36719,2.57813 h 2.25 v 0.21875 q -0.3125,0.0312 -0.40625,0.125 -0.0937,0.0781 -0.0937,0.25 0,0.17187 0.0937,0.4375 l 1.15625,3.07812 1.14063,-2.51562 -0.29688,-0.78125 q -0.14062,-0.35938 -0.375,-0.48438 -0.125,-0.0937 -0.46875,-0.10937 v -0.21875 h 2.54688 v 0.21875 q -0.42188,0.0156 -0.59375,0.15625 -0.125,0.0937 -0.125,0.29687 0,0.125 0.0469,0.25 l 1.21875,3.07813 1.14063,-2.96875 q 0.10937,-0.32813 0.10937,-0.51563 0,-0.10937 -0.10937,-0.1875 -0.10938,-0.0937 -0.45313,-0.10937 v -0.21875 h 1.70313 v 0.21875 q -0.51563,0.0781 -0.75,0.70312 l -1.79688,4.625 h -0.25 l -1.32812,-3.4375 -1.57813,3.4375 h -0.20312 l -1.73438,-4.51562 q -0.17187,-0.4375 -0.34375,-0.57813 -0.15625,-0.15625 -0.5,-0.23437 z m 11.58789,-0.15625 q 1.21875,0 1.95313,0.9375 0.625,0.78125 0.625,1.8125 0,0.71875 -0.34375,1.45312 -0.34375,0.73438 -0.95313,1.125 -0.59375,0.375 -1.34375,0.375 -1.21875,0 -1.92187,-0.96875 -0.60938,-0.82812 -0.60938,-1.82812 0,-0.75 0.35938,-1.46875 0.375,-0.73438 0.96875,-1.07813 0.59375,-0.35937 1.26562,-0.35937 z m -0.1875,0.39062 q -0.29687,0 -0.625,0.1875 -0.3125,0.17188 -0.5,0.64063 -0.1875,0.46875 -0.1875,1.1875 0,1.17187 0.45313,2.03125 0.46875,0.84375 1.23437,0.84375 0.5625,0 0.9375,-0.46875 0.375,-0.46875 0.375,-1.60938 0,-1.4375 -0.625,-2.25 -0.40625,-0.5625 -1.0625,-0.5625 z m 8.65625,0.875 h 3.6875 v -2.26562 q 0,-0.60938 -0.0781,-0.8125 -0.0469,-0.14063 -0.23438,-0.25 -0.26562,-0.14063 -0.54687,-0.14063 h -0.28125 v -0.21875 h 3.40625 v 0.21875 h -0.28125 q -0.28125,0 -0.53125,0.14063 -0.1875,0.0937 -0.26563,0.28125 -0.0625,0.1875 -0.0625,0.78125 v 5.125 q 0,0.60937 0.0781,0.79687 0.0625,0.14063 0.23437,0.25 0.26563,0.14063 0.54688,0.14063 h 0.28125 v 0.21875 h -3.40625 v -0.21875 h 0.28125 q 0.5,0 0.71875,-0.28125 0.14062,-0.1875 0.14062,-0.90625 v -2.42188 h -3.6875 v 2.42188 q 0,0.60937 0.0781,0.79687 0.0625,0.14063 0.25,0.25 0.25,0.14063 0.53125,0.14063 h 0.28125 v 0.21875 h -3.40625 v -0.21875 h 0.28125 q 0.5,0 0.71875,-0.28125 0.14062,-0.1875 0.14062,-0.90625 v -5.125 q 0,-0.60938 -0.0781,-0.8125 -0.0625,-0.14063 -0.23438,-0.25 -0.26562,-0.14063 -0.54687,-0.14063 h -0.28125 v -0.21875 h 3.40625 v 0.21875 h -0.28125 q -0.28125,0 -0.53125,0.14063 -0.1875,0.0937 -0.26563,0.28125 -0.0625,0.1875 -0.0625,0.78125 z m 9.61914,3.48438 q -0.82812,0.64062 -1.04687,0.75 -0.3125,0.14062 -0.67188,0.14062 -0.54687,0 -0.92187,-0.375 -0.35938,-0.39062 -0.35938,-1 0,-0.40625 0.1875,-0.6875 0.23438,-0.39062 0.82813,-0.73437 0.59375,-0.35938 1.98437,-0.875 v -0.20313 q 0,-0.8125 -0.26562,-1.10937 -0.25,-0.29688 -0.73438,-0.29688 -0.375,0 -0.59375,0.20313 -0.21875,0.20312 -0.21875,0.45312 l 0.0156,0.34375 q 0,0.26563 -0.14063,0.42188 -0.14062,0.14062 -0.35937,0.14062 -0.21875,0 -0.35938,-0.15625 -0.125,-0.15625 -0.125,-0.40625 0,-0.51562 0.51563,-0.9375 0.51562,-0.42187 1.4375,-0.42187 0.71875,0 1.17187,0.25 0.34375,0.17187 0.51563,0.5625 0.10937,0.25 0.10937,1.03125 v 1.82812 q 0,0.76563 0.0156,0.9375 0.0312,0.17188 0.0937,0.23438 0.0781,0.0469 0.17187,0.0469 0.0937,0 0.15625,-0.0312 0.125,-0.0781 0.46875,-0.4375 v 0.32813 q -0.65625,0.89062 -1.25,0.89062 -0.28125,0 -0.45312,-0.20312 -0.17188,-0.20313 -0.17188,-0.6875 z m 0,-0.375 v -2.04688 q -0.89062,0.35938 -1.14062,0.5 -0.46875,0.26563 -0.67188,0.54688 -0.20312,0.28125 -0.20312,0.60937 0,0.42188 0.25,0.70313 0.26562,0.28125 0.59375,0.28125 0.4375,0 1.17187,-0.59375 z m 3.8418,-3.23438 q 0.95313,-1.14062 1.79688,-1.14062 0.4375,0 0.75,0.21875 0.32812,0.21875 0.51562,0.73437 0.125,0.34375 0.125,1.07813 v 2.28125 q 0,0.51562 0.0781,0.70312 0.0781,0.14063 0.21875,0.21875 0.14062,0.0781 0.53125,0.0781 v 0.21875 h -2.65625 v -0.21875 h 0.10937 q 0.375,0 0.51563,-0.10938 0.15625,-0.10937 0.21875,-0.32812 0.0156,-0.0937 0.0156,-0.5625 v -2.1875 q 0,-0.73438 -0.1875,-1.0625 -0.1875,-0.34375 -0.64062,-0.34375 -0.70313,0 -1.39063,0.76562 v 2.82813 q 0,0.54687 0.0625,0.67187 0.0937,0.17188 0.23438,0.25 0.14062,0.0781 0.57812,0.0781 v 0.21875 h -2.65625 v -0.21875 h 0.125 q 0.40625,0 0.54688,-0.20313 0.14062,-0.20312 0.14062,-0.79687 v -1.98438 q 0,-0.96875 -0.0469,-1.17187 -0.0312,-0.21875 -0.125,-0.29688 -0.0937,-0.0781 -0.25,-0.0781 -0.15625,0 -0.39063,0.0937 l -0.0781,-0.21875 1.60937,-0.65625 h 0.25 z m 8.23438,3.78125 q -0.39063,0.42188 -0.76563,0.60938 -0.375,0.17187 -0.8125,0.17187 -0.875,0 -1.53125,-0.73437 -0.65625,-0.75 -0.65625,-1.90625 0,-1.14063 0.71875,-2.09375 0.73438,-0.96875 1.875,-0.96875 0.70313,0 1.17188,0.45312 v -1 q 0,-0.90625 -0.0469,-1.10937 -0.0469,-0.21875 -0.14062,-0.29688 -0.0937,-0.0781 -0.23438,-0.0781 -0.15625,0 -0.40625,0.0937 l -0.0781,-0.20313 1.60937,-0.65625 h 0.26563 v 6.20313 q 0,0.9375 0.0312,1.15625 0.0469,0.20312 0.14062,0.28125 0.10938,0.0781 0.23438,0.0781 0.15625,0 0.42187,-0.0937 l 0.0625,0.20313 -1.59375,0.67187 h -0.26562 z m 0,-0.40625 v -2.76562 q -0.0469,-0.39063 -0.21875,-0.71875 -0.17188,-0.32813 -0.46875,-0.5 -0.28125,-0.17188 -0.5625,-0.17188 -0.51563,0 -0.92188,0.46875 -0.53125,0.60938 -0.53125,1.78125 0,1.1875 0.51563,1.8125 0.51562,0.625 1.15625,0.625 0.53125,0 1.03125,-0.53125 z m 5.67187,-4.51562 v 1.82812 h -0.1875 q -0.23437,-0.85937 -0.57812,-1.17187 -0.34375,-0.3125 -0.89063,-0.3125 -0.40625,0 -0.65625,0.21875 -0.25,0.21875 -0.25,0.48437 0,0.32813 0.1875,0.5625 0.17188,0.23438 0.73438,0.51563 l 0.85937,0.40625 q 1.1875,0.57812 1.1875,1.53125 0,0.73437 -0.5625,1.1875 -0.54687,0.45312 -1.23437,0.45312 -0.48438,0 -1.125,-0.1875 -0.1875,-0.0625 -0.3125,-0.0625 -0.14063,0 -0.21875,0.15625 h -0.1875 v -1.90625 h 0.1875 q 0.17187,0.8125 0.625,1.23438 0.46875,0.40625 1.04687,0.40625 0.40625,0 0.65625,-0.23438 0.25,-0.23437 0.25,-0.5625 0,-0.40625 -0.28125,-0.6875 -0.28125,-0.28125 -1.14062,-0.70312 -0.84375,-0.42188 -1.10938,-0.75 -0.25,-0.34375 -0.25,-0.84375 0,-0.67188 0.45313,-1.10938 0.45312,-0.45312 1.17187,-0.45312 0.3125,0 0.76563,0.14062 0.29687,0.0937 0.39062,0.0937 0.0937,0 0.14063,-0.0469 0.0625,-0.0469 0.14062,-0.1875 z"
     fill-rule="nonzero"
     id="path95" />
  <path
     fill="#000000"
     d="m 513.75601,320.79788 0.21875,2.5 h -0.21875 q -0.29688,-0.9375 -0.79688,-1.40625 -0.70312,-0.6875 -1.82812,-0.6875 -1.51563,0 -2.29688,1.20312 -0.67187,1.01563 -0.67187,2.40625 0,1.14063 0.4375,2.07813 0.45312,0.9375 1.15625,1.375 0.71875,0.4375 1.46875,0.4375 0.4375,0 0.84375,-0.10938 0.40625,-0.10937 0.79687,-0.32812 v -2.29688 q 0,-0.59375 -0.0937,-0.78125 -0.0937,-0.1875 -0.28125,-0.28125 -0.1875,-0.0937 -0.67187,-0.0937 v -0.23437 h 3.07812 v 0.23437 h -0.15625 q -0.45312,0 -0.625,0.29688 -0.10937,0.21875 -0.10937,0.85937 v 2.4375 q -0.67188,0.35938 -1.32813,0.53125 -0.65625,0.17188 -1.46875,0.17188 -2.29687,0 -3.5,-1.48438 -0.89062,-1.10937 -0.89062,-2.54687 0,-1.0625 0.5,-2.01563 0.60937,-1.14062 1.64062,-1.76562 0.875,-0.5 2.0625,-0.5 0.4375,0 0.78125,0.0781 0.35938,0.0625 1.01563,0.29688 0.32812,0.125 0.4375,0.125 0.10937,0 0.1875,-0.0937 0.0781,-0.10938 0.10937,-0.40625 z m 3.25977,2.59375 v 1.21875 q 0.67187,-1.21875 1.375,-1.21875 0.32812,0 0.53125,0.20312 0.21875,0.1875 0.21875,0.45313 0,0.23437 -0.15625,0.39062 -0.15625,0.15625 -0.35938,0.15625 -0.20312,0 -0.46875,-0.20312 -0.25,-0.20313 -0.375,-0.20313 -0.10937,0 -0.23437,0.10938 -0.25,0.25 -0.53125,0.79687 v 2.57813 q 0,0.4375 0.10937,0.67187 0.0781,0.15625 0.26563,0.26563 0.1875,0.0937 0.5625,0.0937 v 0.21875 h -2.75 v -0.21875 q 0.40625,0 0.60937,-0.125 0.14063,-0.0937 0.20313,-0.29688 0.0312,-0.0937 0.0312,-0.5625 v -2.07812 q 0,-0.9375 -0.0469,-1.10938 -0.0312,-0.1875 -0.14062,-0.26562 -0.0937,-0.0937 -0.25,-0.0937 -0.1875,0 -0.40625,0.0937 l -0.0625,-0.21875 1.625,-0.65625 z m 5.46484,4.75 q -0.82813,0.64062 -1.04688,0.75 -0.3125,0.14062 -0.67187,0.14062 -0.54688,0 -0.92188,-0.375 -0.35937,-0.39062 -0.35937,-1 0,-0.40625 0.1875,-0.6875 0.23437,-0.39062 0.82812,-0.73437 0.59375,-0.35938 1.98438,-0.875 v -0.20313 q 0,-0.8125 -0.26563,-1.10937 -0.25,-0.29688 -0.73437,-0.29688 -0.375,0 -0.59375,0.20313 -0.21875,0.20312 -0.21875,0.45312 l 0.0156,0.34375 q 0,0.26563 -0.14062,0.42188 -0.14063,0.14062 -0.35938,0.14062 -0.21875,0 -0.35937,-0.15625 -0.125,-0.15625 -0.125,-0.40625 0,-0.51562 0.51562,-0.9375 0.51563,-0.42187 1.4375,-0.42187 0.71875,0 1.17188,0.25 0.34375,0.17187 0.51562,0.5625 0.10938,0.25 0.10938,1.03125 v 1.82812 q 0,0.76563 0.0156,0.9375 0.0312,0.17188 0.0937,0.23438 0.0781,0.0469 0.17188,0.0469 0.0937,0 0.15625,-0.0312 0.125,-0.0781 0.46875,-0.4375 v 0.32813 q -0.65625,0.89062 -1.25,0.89062 -0.28125,0 -0.45313,-0.20312 -0.17187,-0.20313 -0.17187,-0.6875 z m 0,-0.375 v -2.04688 q -0.89063,0.35938 -1.14063,0.5 -0.46875,0.26563 -0.67187,0.54688 -0.20313,0.28125 -0.20313,0.60937 0,0.42188 0.25,0.70313 0.26563,0.28125 0.59375,0.28125 0.4375,0 1.17188,-0.59375 z m 5.74805,-4.375 v 1.82812 h -0.1875 q -0.23438,-0.85937 -0.57813,-1.17187 -0.34375,-0.3125 -0.89062,-0.3125 -0.40625,0 -0.65625,0.21875 -0.25,0.21875 -0.25,0.48437 0,0.32813 0.1875,0.5625 0.17187,0.23438 0.73437,0.51563 l 0.85938,0.40625 q 1.1875,0.57812 1.1875,1.53125 0,0.73437 -0.5625,1.1875 -0.54688,0.45312 -1.23438,0.45312 -0.48437,0 -1.125,-0.1875 -0.1875,-0.0625 -0.3125,-0.0625 -0.14062,0 -0.21875,0.15625 h -0.1875 v -1.90625 h 0.1875 q 0.17188,0.8125 0.625,1.23438 0.46875,0.40625 1.04688,0.40625 0.40625,0 0.65625,-0.23438 0.25,-0.23437 0.25,-0.5625 0,-0.40625 -0.28125,-0.6875 -0.28125,-0.28125 -1.14063,-0.70312 -0.84375,-0.42188 -1.10937,-0.75 -0.25,-0.34375 -0.25,-0.84375 0,-0.67188 0.45312,-1.10938 0.45313,-0.45312 1.17188,-0.45312 0.3125,0 0.76562,0.14062 0.29688,0.0937 0.39063,0.0937 0.0937,0 0.14062,-0.0469 0.0625,-0.0469 0.14063,-0.1875 z m 0.81054,0.70312 1.65625,-0.67187 h 0.21875 v 1.25 q 0.42188,-0.70313 0.84375,-0.98438 0.42188,-0.29687 0.875,-0.29687 0.8125,0 1.34375,0.64062 0.67188,0.76563 0.67188,2.01563 0,1.39062 -0.79688,2.29687 -0.65625,0.75 -1.65625,0.75 -0.4375,0 -0.75,-0.125 -0.23437,-0.0937 -0.53125,-0.35937 v 1.64062 q 0,0.54688 0.0625,0.6875 0.0781,0.15625 0.23438,0.23438 0.17187,0.0937 0.60937,0.0937 v 0.21875 h -2.8125 v -0.21875 h 0.15625 q 0.3125,0.0156 0.54688,-0.10938 0.10937,-0.0781 0.17187,-0.21875 0.0625,-0.14062 0.0625,-0.71875 v -5.07812 q 0,-0.53125 -0.0469,-0.67188 -0.0469,-0.14062 -0.15625,-0.20312 -0.0937,-0.0781 -0.26563,-0.0781 -0.14062,0 -0.35937,0.0937 z m 1.875,0.92188 v 2 q 0,0.65625 0.0625,0.85937 0.0781,0.34375 0.39063,0.60938 0.32812,0.25 0.8125,0.25 0.57812,0 0.95312,-0.45313 0.46875,-0.60937 0.46875,-1.6875 0,-1.23437 -0.53125,-1.89062 -0.375,-0.45313 -0.89062,-0.45313 -0.28125,0 -0.5625,0.14063 -0.21875,0.0937 -0.70313,0.625 z"
     fill-rule="nonzero"
     id="path97" />
  <path
     fill="#000000"
     fill-opacity="0"
     d="M 274.83594,45.18504 V 82.06692"
     fill-rule="evenodd"
     id="path99" />
  <path
     stroke="#000000"
     stroke-width="1"
     stroke-linejoin="round"
     stroke-linecap="butt"
     d="M 274.83594,45.18504 V 76.06692"
     fill-rule="evenodd"
     id="path101" />
  <path
     fill="#000000"
     stroke="#000000"
     stroke-width="1"
     stroke-linecap="butt"
     d="m 273.18421,76.06693 1.65173,4.53812 1.65174,-4.53812 z"
     fill-rule="evenodd"
     id="path103" />
  <path
     fill="#000000"
     fill-opacity="0"
     d="m 274.83594,121.64435 -153.82675,27.3071"
     fill-rule="evenodd"
     id="path105" />
  <path
     stroke="#000000"
     stroke-width="1"
     stroke-linejoin="round"
     stroke-linecap="butt"
     d="m 274.83594,121.64435 -147.9191,26.25839"
     fill-rule="evenodd"
     id="path107" />
  <path
     fill="#000000"
     stroke="#000000"
     stroke-width="1"
     stroke-linecap="butt"
     d="m 126.62811,146.27643 -4.17953,2.41949 4.75692,0.83313 z"
     fill-rule="evenodd"
     id="path109" />
  <path
     fill="#000000"
     fill-opacity="0"
     d="m 274.83594,121.64435 150.99216,27.3071"
     fill-rule="evenodd"
     id="path111" />
  <path
     stroke="#000000"
     stroke-width="1"
     stroke-linejoin="round"
     stroke-linecap="butt"
     d="m 274.83594,121.64435 145.08792,26.23932"
     fill-rule="evenodd"
     id="path113" />
  <path
     fill="#000000"
     stroke="#000000"
     stroke-width="1"
     stroke-linecap="butt"
     d="m 419.62992,149.50903 4.75958,-0.81775 -4.17169,-2.43298 z"
     fill-rule="evenodd"
     id="path115" />
  <path
     fill="#000000"
     fill-opacity="0"
     d="M 120.99607,188.53281 87.13779,220.91077"
     fill-rule="evenodd"
     id="path117" />
  <path
     stroke="#000000"
     stroke-width="1"
     stroke-linejoin="round"
     stroke-linecap="butt"
     d="M 120.99607,188.53281 91.47416,216.76398"
     fill-rule="evenodd"
     id="path119" />
  <path
     fill="#000000"
     stroke="#000000"
     stroke-width="1"
     stroke-linecap="butt"
     d="m 90.33261,215.57023 -2.13826,4.33017 4.42137,-1.94266 z"
     fill-rule="evenodd"
     id="path121" />
  <path
     fill="#000000"
     fill-opacity="0"
     d="m 120.99607,188.53281 68,28.81891"
     fill-rule="evenodd"
     id="path123" />
  <path
     stroke="#000000"
     stroke-width="1"
     stroke-linejoin="round"
     stroke-linecap="butt"
     d="m 120.99607,188.53281 62.47565,26.47766"
     fill-rule="evenodd"
     id="path125" />
  <path
     fill="#000000"
     stroke="#000000"
     stroke-width="1"
     stroke-linecap="butt"
     d="m 182.82717,216.53125 4.82288,0.25 -3.53385,-3.2916 z"
     fill-rule="evenodd"
     id="path127" />
  <path
     fill="#000000"
     fill-opacity="0"
     d="M 188.99607,256.94751 83.1063,298.5538"
     fill-rule="evenodd"
     id="path129" />
  <path
     stroke="#000000"
     stroke-width="1"
     stroke-linejoin="round"
     stroke-linecap="butt"
     d="M 188.99607,256.94751 88.69068,296.35959"
     fill-rule="evenodd"
     id="path131" />
  <path
     fill="#000000"
     stroke="#000000"
     stroke-width="1"
     stroke-linecap="butt"
     d="m 88.08664,294.82227 -3.61971,3.19693 4.82781,-0.12228 z"
     fill-rule="evenodd"
     id="path133" />
  <path
     fill="#000000"
     fill-opacity="0"
     d="M 188.99607,256.94751 V 298.5538"
     fill-rule="evenodd"
     id="path135" />
  <path
     stroke="#000000"
     stroke-width="1"
     stroke-linejoin="round"
     stroke-linecap="butt"
     d="M 188.99607,256.94751 V 292.5538"
     fill-rule="evenodd"
     id="path137" />
  <path
     fill="#000000"
     stroke="#000000"
     stroke-width="1"
     stroke-linecap="butt"
     d="m 187.34433,292.5538 1.65173,4.53812 1.65174,-4.53812 z"
     fill-rule="evenodd"
     id="path139" />
  <path
     fill="#000000"
     fill-opacity="0"
     d="M 188.99607,256.94751 294.88584,298.5538"
     fill-rule="evenodd"
     id="path141" />
  <path
     stroke="#000000"
     stroke-width="1"
     stroke-linejoin="round"
     stroke-linecap="butt"
     d="m 188.99607,256.94751 100.30536,39.41208"
     fill-rule="evenodd"
     id="path143" />
  <path
     fill="#000000"
     stroke="#000000"
     stroke-width="1"
     stroke-linecap="butt"
     d="m 288.69739,297.89691 4.82779,0.12228 -3.61969,-3.19693 z"
     fill-rule="evenodd"
     id="path145" />
  <path
     fill="#000000"
     fill-opacity="0"
     d="m 425.83337,188.53281 -33.85828,32.37796"
     fill-rule="evenodd"
     id="path147" />
  <path
     stroke="#000000"
     stroke-width="1"
     stroke-linejoin="round"
     stroke-linecap="butt"
     d="m 425.83337,188.53281 -29.52191,28.23117"
     fill-rule="evenodd"
     id="path149" />
  <path
     fill="#000000"
     stroke="#000000"
     stroke-width="1"
     stroke-linecap="butt"
     d="m 395.16987,215.57023 -2.13824,4.33017 4.42132,-1.94266 z"
     fill-rule="evenodd"
     id="path151" />
  <path
     fill="#000000"
     fill-opacity="0"
     d="m 425.83337,188.53281 41.92126,28.81891"
     fill-rule="evenodd"
     id="path153" />
  <path
     stroke="#000000"
     stroke-width="1"
     stroke-linejoin="round"
     stroke-linecap="butt"
     d="m 425.83337,188.53281 36.97687,25.41986"
     fill-rule="evenodd"
     id="path155" />
  <path
     fill="#000000"
     stroke="#000000"
     stroke-width="1"
     stroke-linecap="butt"
     d="m 461.87457,215.31381 4.67535,1.20972 -2.80395,-3.93195 z"
     fill-rule="evenodd"
     id="path157" />
  <path
     fill="#000000"
     fill-opacity="0"
     d="M 467.76511,256.94751 414.34775,298.5538"
     fill-rule="evenodd"
     id="path159" />
  <path
     stroke="#000000"
     stroke-width="1"
     stroke-linejoin="round"
     stroke-linecap="butt"
     d="m 467.76511,256.94751 -48.68378,37.91937"
     fill-rule="evenodd"
     id="path161" />
  <path
     fill="#000000"
     stroke="#000000"
     stroke-width="1"
     stroke-linecap="butt"
     d="m 418.06637,293.56378 -2.56531,4.09171 4.59522,-1.48551 z"
     fill-rule="evenodd"
     id="path163" />
  <path
     fill="#000000"
     fill-opacity="0"
     d="m 467.76511,256.94751 52.97638,41.60629"
     fill-rule="evenodd"
     id="path165" />
  <path
     stroke="#000000"
     stroke-width="1"
     stroke-linejoin="round"
     stroke-linecap="butt"
     d="m 467.76511,256.94751 48.25763,37.90036"
     fill-rule="evenodd"
     id="path167" />
  <path
     fill="#000000"
     stroke="#000000"
     stroke-width="1"
     stroke-linecap="butt"
     d="m 515.00257,296.14688 4.58917,1.50397 -2.54876,-4.10199 z"
     fill-rule="evenodd"
     id="path169" />
</svg>
